<?xml version="1.0" encoding="utf-8"?>
<!-- Generator: Adobe Illustrator 22.1.0, SVG Export Plug-In . SVG Version: 6.00 Build 0)  -->
<svg version="1.2" baseProfile="tiny" id="Layer_1" xmlns="http://www.w3.org/2000/svg" xmlns:xlink="http://www.w3.org/1999/xlink"
	 x="0px" y="0px" viewBox="0 0 403 69.667" xml:space="preserve">
<g>
	<path d="M108.802,38.206c0.026,0.166,0.05,0.338,0.075,0.508c-0.019-0.172-0.037-0.341-0.055-0.51
		C108.815,38.205,108.808,38.206,108.802,38.206z"/>
	<g>
		<g>
			<path d="M59.834,55.023h2.136c1.228,0,2.187,0.278,2.879,0.835c0.692,0.557,1.037,1.392,1.037,2.506
				c0,0.557-0.088,1.048-0.264,1.475c-0.176,0.426-0.43,0.782-0.761,1.067c-0.332,0.285-0.735,0.5-1.209,0.645
				c-0.475,0.144-1.011,0.217-1.608,0.217h-2.21V55.023z M61.872,60.798c0.818,0,1.449-0.198,1.891-0.593
				c0.442-0.395,0.663-1.009,0.663-1.841c0-0.825-0.223-1.427-0.669-1.805c-0.446-0.378-1.074-0.567-1.885-0.567h-0.614v4.806
				H61.872z"/>
			<path d="M72.405,61.891c-0.524,0-1.003-0.081-1.436-0.242c-0.434-0.162-0.808-0.395-1.123-0.701
				c-0.315-0.306-0.559-0.676-0.731-1.109c-0.172-0.433-0.258-0.925-0.258-1.475c0-0.543,0.086-1.03,0.258-1.459
				c0.172-0.43,0.415-0.792,0.731-1.088c0.315-0.295,0.689-0.522,1.123-0.681c0.434-0.158,0.913-0.237,1.436-0.237
				c0.524,0,1.002,0.079,1.436,0.237c0.434,0.158,0.806,0.385,1.117,0.681c0.311,0.296,0.552,0.658,0.724,1.088
				c0.172,0.43,0.258,0.916,0.258,1.459c0,0.55-0.086,1.042-0.258,1.475c-0.172,0.433-0.413,0.803-0.724,1.109
				c-0.311,0.306-0.683,0.54-1.117,0.701C73.407,61.81,72.928,61.891,72.405,61.891z M72.405,60.85c0.311,0,0.595-0.058,0.853-0.175
				c0.258-0.117,0.477-0.284,0.657-0.5c0.18-0.217,0.319-0.478,0.417-0.784c0.098-0.306,0.147-0.648,0.147-1.026
				c0-0.756-0.188-1.349-0.565-1.779c-0.377-0.429-0.88-0.644-1.51-0.644c-0.638,0-1.146,0.215-1.522,0.644
				c-0.377,0.43-0.565,1.023-0.565,1.779c0,0.378,0.049,0.72,0.147,1.026c0.098,0.306,0.239,0.567,0.423,0.784
				c0.184,0.217,0.403,0.383,0.657,0.5C71.799,60.791,72.086,60.85,72.405,60.85z"/>
			<path d="M79.329,55.023h1.559l1.449,3.321l0.528,1.279h0.049l0.528-1.279l1.412-3.321h1.571v6.744h-1.338v-3.083
				c0-0.158,0.006-0.33,0.018-0.516c0.012-0.186,0.026-0.373,0.043-0.562c0.016-0.189,0.037-0.375,0.061-0.557
				c0.025-0.182,0.045-0.352,0.061-0.511h-0.049l-0.651,1.537l-1.387,3.063h-0.651l-1.387-3.063l-0.638-1.537h-0.049
				c0.016,0.158,0.035,0.328,0.055,0.511c0.02,0.182,0.039,0.368,0.055,0.557c0.016,0.189,0.031,0.376,0.043,0.562
				c0.012,0.186,0.018,0.357,0.018,0.516v3.083h-1.301V55.023z"/>
			<path d="M90.242,55.023h4.825v1.011h-3.401v1.722h2.885v1.011h-2.885v1.99h3.523v1.011h-4.947V55.023z"/>
			<path d="M98.873,60.086c0.286,0.227,0.614,0.411,0.982,0.552c0.368,0.141,0.741,0.211,1.117,0.211
				c0.45,0,0.796-0.079,1.037-0.237c0.241-0.158,0.362-0.368,0.362-0.629c0-0.138-0.031-0.254-0.092-0.351
				c-0.061-0.096-0.147-0.181-0.258-0.253c-0.111-0.072-0.244-0.139-0.399-0.201c-0.156-0.062-0.323-0.124-0.503-0.186l-1.093-0.402
				c-0.196-0.069-0.393-0.155-0.589-0.258c-0.196-0.103-0.37-0.227-0.522-0.371c-0.152-0.144-0.274-0.313-0.368-0.505
				c-0.094-0.192-0.141-0.412-0.141-0.66c0-0.268,0.068-0.517,0.203-0.748c0.135-0.23,0.321-0.431,0.559-0.603
				c0.237-0.172,0.52-0.306,0.847-0.402c0.327-0.096,0.688-0.144,1.08-0.144c0.475,0,0.929,0.077,1.363,0.232
				c0.434,0.155,0.806,0.363,1.117,0.624l-0.737,0.763c-0.254-0.179-0.522-0.32-0.804-0.423c-0.282-0.103-0.595-0.155-0.939-0.155
				c-0.385,0-0.69,0.071-0.915,0.211c-0.225,0.141-0.338,0.335-0.338,0.583c0,0.131,0.035,0.242,0.104,0.335
				c0.069,0.093,0.164,0.175,0.282,0.248c0.119,0.072,0.256,0.138,0.411,0.196c0.155,0.059,0.315,0.115,0.479,0.17l1.08,0.381
				c0.237,0.083,0.456,0.179,0.657,0.289c0.2,0.11,0.372,0.237,0.516,0.381c0.143,0.144,0.254,0.311,0.331,0.5
				c0.078,0.189,0.117,0.407,0.117,0.655c0,0.275-0.066,0.533-0.196,0.773c-0.131,0.241-0.321,0.452-0.571,0.634
				c-0.25,0.182-0.552,0.327-0.908,0.433c-0.356,0.106-0.759,0.16-1.209,0.16c-0.54,0-1.06-0.086-1.559-0.258
				c-0.499-0.172-0.941-0.416-1.326-0.732L98.873,60.086z"/>
			<path d="M108.436,56.034h-2.32v-1.011h6.052v1.011h-2.308v5.734h-1.424V56.034z"/>
			<path d="M115.287,55.023h1.424v6.744h-1.424V55.023z"/>
			<path d="M120.087,58.416c0-0.55,0.096-1.043,0.288-1.48c0.192-0.436,0.456-0.806,0.792-1.109
				c0.335-0.302,0.728-0.533,1.178-0.691c0.45-0.158,0.933-0.237,1.449-0.237c0.491,0,0.931,0.086,1.32,0.258
				c0.389,0.172,0.71,0.371,0.964,0.598l-0.786,0.743c-0.213-0.172-0.436-0.308-0.669-0.407c-0.233-0.1-0.505-0.149-0.816-0.149
				c-0.327,0-0.63,0.057-0.908,0.17c-0.278,0.114-0.518,0.275-0.718,0.485c-0.201,0.21-0.356,0.466-0.466,0.768
				c-0.11,0.303-0.166,0.643-0.166,1.021c0,0.77,0.2,1.373,0.602,1.81c0.401,0.437,0.937,0.655,1.608,0.655
				c0.36,0,0.675-0.058,0.945-0.175s0.52-0.282,0.749-0.495l0.786,0.732c-0.327,0.316-0.698,0.559-1.111,0.727
				c-0.413,0.168-0.878,0.253-1.393,0.253c-0.508,0-0.984-0.076-1.43-0.227c-0.446-0.151-0.833-0.374-1.16-0.67
				c-0.327-0.295-0.585-0.66-0.773-1.093S120.087,58.973,120.087,58.416z"/>
			<path d="M147.623,60.396c-0.205,0-0.399-0.033-0.583-0.098c-0.184-0.065-0.344-0.158-0.479-0.278
				c-0.135-0.12-0.241-0.261-0.319-0.423c-0.078-0.161-0.117-0.342-0.117-0.541c0-0.192,0.039-0.371,0.117-0.536
				c0.078-0.165,0.184-0.306,0.319-0.423c0.135-0.117,0.295-0.21,0.479-0.278c0.184-0.069,0.378-0.103,0.583-0.103
				c0.204,0,0.399,0.035,0.583,0.103c0.184,0.069,0.346,0.162,0.485,0.278c0.139,0.117,0.247,0.258,0.325,0.423
				c0.078,0.165,0.117,0.344,0.117,0.536c0,0.199-0.039,0.38-0.117,0.541c-0.078,0.162-0.186,0.303-0.325,0.423
				c-0.139,0.12-0.301,0.213-0.485,0.278C148.021,60.363,147.827,60.396,147.623,60.396z"/>
			<path d="M169.29,58.416c0-0.55,0.096-1.043,0.288-1.48c0.192-0.436,0.456-0.806,0.792-1.109c0.335-0.302,0.728-0.533,1.178-0.691
				c0.45-0.158,0.933-0.237,1.449-0.237c0.491,0,0.931,0.086,1.32,0.258c0.389,0.172,0.71,0.371,0.964,0.598l-0.786,0.743
				c-0.213-0.172-0.436-0.308-0.669-0.407c-0.233-0.1-0.505-0.149-0.816-0.149c-0.327,0-0.63,0.057-0.908,0.17
				c-0.278,0.114-0.518,0.275-0.718,0.485c-0.201,0.21-0.356,0.466-0.466,0.768c-0.11,0.303-0.166,0.643-0.166,1.021
				c0,0.77,0.2,1.373,0.602,1.81c0.401,0.437,0.937,0.655,1.608,0.655c0.36,0,0.675-0.058,0.945-0.175s0.52-0.282,0.749-0.495
				l0.786,0.732c-0.327,0.316-0.698,0.559-1.111,0.727s-0.878,0.253-1.393,0.253c-0.508,0-0.984-0.076-1.43-0.227
				c-0.446-0.151-0.833-0.374-1.16-0.67c-0.327-0.295-0.585-0.66-0.773-1.093S169.29,58.973,169.29,58.416z"/>
			<path d="M181.272,61.891c-0.524,0-1.003-0.081-1.436-0.242c-0.434-0.162-0.808-0.395-1.123-0.701
				c-0.315-0.306-0.559-0.676-0.73-1.109c-0.172-0.433-0.258-0.925-0.258-1.475c0-0.543,0.086-1.03,0.258-1.459
				c0.172-0.43,0.415-0.792,0.73-1.088c0.315-0.295,0.689-0.522,1.123-0.681c0.434-0.158,0.912-0.237,1.436-0.237
				c0.524,0,1.002,0.079,1.436,0.237c0.434,0.158,0.806,0.385,1.117,0.681c0.311,0.296,0.552,0.658,0.724,1.088
				c0.172,0.43,0.258,0.916,0.258,1.459c0,0.55-0.086,1.042-0.258,1.475c-0.172,0.433-0.413,0.803-0.724,1.109
				c-0.311,0.306-0.684,0.54-1.117,0.701C182.275,61.81,181.796,61.891,181.272,61.891z M181.272,60.85
				c0.311,0,0.595-0.058,0.853-0.175c0.258-0.117,0.477-0.284,0.657-0.5c0.18-0.217,0.319-0.478,0.417-0.784
				c0.098-0.306,0.147-0.648,0.147-1.026c0-0.756-0.188-1.349-0.565-1.779c-0.377-0.429-0.88-0.644-1.51-0.644
				c-0.638,0-1.146,0.215-1.522,0.644c-0.376,0.43-0.565,1.023-0.565,1.779c0,0.378,0.049,0.72,0.147,1.026
				c0.098,0.306,0.239,0.567,0.423,0.784c0.184,0.217,0.403,0.383,0.657,0.5C180.666,60.791,180.953,60.85,181.272,60.85z"/>
			<path d="M188.196,55.023h1.559l1.449,3.321l0.528,1.279h0.049l0.528-1.279l1.412-3.321h1.571v6.744h-1.338v-3.083
				c0-0.158,0.006-0.33,0.018-0.516c0.012-0.186,0.027-0.373,0.043-0.562c0.016-0.189,0.037-0.375,0.061-0.557
				c0.025-0.182,0.045-0.352,0.062-0.511h-0.049l-0.651,1.537l-1.387,3.063H191.4l-1.387-3.063l-0.638-1.537h-0.049
				c0.016,0.158,0.035,0.328,0.055,0.511c0.02,0.182,0.039,0.368,0.055,0.557c0.016,0.189,0.031,0.376,0.043,0.562
				c0.012,0.186,0.018,0.357,0.018,0.516v3.083h-1.301V55.023z"/>
			<path d="M199.11,55.023h1.559l1.449,3.321l0.528,1.279h0.049l0.528-1.279l1.412-3.321h1.571v6.744h-1.338v-3.083
				c0-0.158,0.006-0.33,0.018-0.516c0.012-0.186,0.027-0.373,0.043-0.562c0.016-0.189,0.037-0.375,0.061-0.557
				c0.025-0.182,0.045-0.352,0.062-0.511h-0.049l-0.651,1.537l-1.387,3.063h-0.651l-1.387-3.063l-0.638-1.537h-0.049
				c0.016,0.158,0.035,0.328,0.055,0.511c0.02,0.182,0.039,0.368,0.055,0.557c0.016,0.189,0.031,0.376,0.043,0.562
				c0.012,0.186,0.018,0.357,0.018,0.516v3.083h-1.301V55.023z"/>
			<path d="M210.023,55.023h4.825v1.011h-3.401v1.722h2.885v1.011h-2.885v1.99h3.523v1.011h-4.947V55.023z"/>
			<path d="M222.754,61.767l-1.731-2.64h-1.215v2.64h-1.424v-6.744h2.701c0.417,0,0.806,0.035,1.166,0.103
				c0.36,0.069,0.673,0.181,0.939,0.335c0.266,0.155,0.475,0.359,0.626,0.614c0.151,0.254,0.227,0.571,0.227,0.949
				c0,0.516-0.145,0.932-0.436,1.248c-0.291,0.316-0.681,0.543-1.172,0.681l1.915,2.815H222.754z M219.808,58.179h1.13
				c0.556,0,0.978-0.096,1.264-0.289c0.286-0.192,0.43-0.481,0.43-0.866c0-0.392-0.143-0.663-0.43-0.815
				c-0.287-0.151-0.708-0.227-1.264-0.227h-1.13V58.179z"/>
			<path d="M227.076,58.416c0-0.55,0.096-1.043,0.288-1.48c0.192-0.436,0.456-0.806,0.792-1.109
				c0.335-0.302,0.728-0.533,1.178-0.691c0.45-0.158,0.933-0.237,1.449-0.237c0.491,0,0.931,0.086,1.32,0.258
				c0.389,0.172,0.71,0.371,0.964,0.598l-0.786,0.743c-0.213-0.172-0.436-0.308-0.669-0.407c-0.233-0.1-0.505-0.149-0.816-0.149
				c-0.327,0-0.63,0.057-0.908,0.17c-0.278,0.114-0.518,0.275-0.718,0.485c-0.201,0.21-0.356,0.466-0.466,0.768
				c-0.11,0.303-0.166,0.643-0.166,1.021c0,0.77,0.2,1.373,0.602,1.81c0.401,0.437,0.937,0.655,1.608,0.655
				c0.36,0,0.675-0.058,0.945-0.175s0.52-0.282,0.749-0.495l0.786,0.732c-0.327,0.316-0.698,0.559-1.111,0.727
				s-0.878,0.253-1.393,0.253c-0.508,0-0.984-0.076-1.43-0.227c-0.446-0.151-0.833-0.374-1.16-0.67
				c-0.327-0.295-0.585-0.66-0.773-1.093S227.076,58.973,227.076,58.416z"/>
			<path d="M236.345,55.023h1.424v6.744h-1.424V55.023z"/>
			<path d="M245.294,59.942h-2.689l-0.626,1.825h-1.461l2.627-6.744h1.67l2.615,6.744h-1.51L245.294,59.942z M244.975,59.004
				l-0.282-0.825c-0.123-0.357-0.246-0.725-0.368-1.103c-0.123-0.378-0.242-0.753-0.356-1.124h-0.049
				c-0.115,0.378-0.229,0.755-0.344,1.129c-0.115,0.375-0.237,0.741-0.368,1.098l-0.282,0.825H244.975z"/>
			<path d="M250.192,55.023h1.424v5.734h3.327v1.011h-4.751V55.023z"/>
			<path d="M276.39,60.396c-0.205,0-0.399-0.033-0.583-0.098c-0.184-0.065-0.344-0.158-0.479-0.278
				c-0.135-0.12-0.241-0.261-0.319-0.423c-0.078-0.161-0.117-0.342-0.117-0.541c0-0.192,0.039-0.371,0.117-0.536
				c0.078-0.165,0.184-0.306,0.319-0.423c0.135-0.117,0.295-0.21,0.479-0.278c0.184-0.069,0.378-0.103,0.583-0.103
				c0.204,0,0.399,0.035,0.583,0.103c0.184,0.069,0.346,0.162,0.485,0.278c0.139,0.117,0.247,0.258,0.325,0.423
				c0.078,0.165,0.117,0.344,0.117,0.536c0,0.199-0.039,0.38-0.117,0.541c-0.078,0.162-0.186,0.303-0.325,0.423
				c-0.139,0.12-0.301,0.213-0.485,0.278C276.789,60.363,276.594,60.396,276.39,60.396z"/>
			<path d="M298.757,60.086c0.286,0.227,0.614,0.411,0.982,0.552c0.368,0.141,0.741,0.211,1.117,0.211
				c0.45,0,0.796-0.079,1.037-0.237s0.362-0.368,0.362-0.629c0-0.138-0.031-0.254-0.092-0.351c-0.061-0.096-0.147-0.181-0.258-0.253
				s-0.244-0.139-0.399-0.201c-0.156-0.062-0.323-0.124-0.503-0.186l-1.093-0.402c-0.196-0.069-0.393-0.155-0.589-0.258
				c-0.196-0.103-0.37-0.227-0.522-0.371c-0.152-0.144-0.274-0.313-0.368-0.505c-0.094-0.192-0.141-0.412-0.141-0.66
				c0-0.268,0.068-0.517,0.203-0.748c0.135-0.23,0.321-0.431,0.559-0.603c0.237-0.172,0.52-0.306,0.847-0.402
				c0.327-0.096,0.687-0.144,1.08-0.144c0.474,0,0.929,0.077,1.363,0.232c0.434,0.155,0.806,0.363,1.117,0.624l-0.737,0.763
				c-0.254-0.179-0.522-0.32-0.804-0.423c-0.282-0.103-0.595-0.155-0.939-0.155c-0.385,0-0.69,0.071-0.915,0.211
				c-0.225,0.141-0.338,0.335-0.338,0.583c0,0.131,0.035,0.242,0.104,0.335c0.069,0.093,0.164,0.175,0.282,0.248
				c0.119,0.072,0.256,0.138,0.411,0.196c0.155,0.059,0.315,0.115,0.479,0.17l1.08,0.381c0.237,0.083,0.456,0.179,0.657,0.289
				c0.2,0.11,0.372,0.237,0.516,0.381c0.143,0.144,0.254,0.311,0.331,0.5c0.078,0.189,0.117,0.407,0.117,0.655
				c0,0.275-0.066,0.533-0.196,0.773c-0.131,0.241-0.321,0.452-0.571,0.634c-0.25,0.182-0.552,0.327-0.908,0.433
				c-0.356,0.106-0.759,0.16-1.209,0.16c-0.54,0-1.06-0.086-1.559-0.258c-0.499-0.172-0.941-0.416-1.326-0.732L298.757,60.086z"/>
			<path d="M306.946,55.023h2.701c0.442,0,0.849,0.035,1.222,0.103c0.372,0.069,0.694,0.186,0.964,0.351
				c0.27,0.165,0.481,0.38,0.632,0.645c0.151,0.265,0.227,0.593,0.227,0.985c0,0.371-0.078,0.694-0.233,0.969
				c-0.156,0.275-0.37,0.504-0.644,0.686c-0.274,0.182-0.598,0.316-0.97,0.402c-0.373,0.086-0.772,0.129-1.197,0.129h-1.277v2.475
				h-1.424V55.023z M309.524,58.333c0.606,0,1.052-0.101,1.338-0.304c0.286-0.203,0.43-0.511,0.43-0.923
				c0-0.426-0.147-0.72-0.442-0.882c-0.295-0.162-0.737-0.242-1.326-0.242h-1.154v2.351H309.524z"/>
			<path d="M319.087,61.891c-0.524,0-1.003-0.081-1.436-0.242c-0.434-0.162-0.808-0.395-1.123-0.701
				c-0.315-0.306-0.559-0.676-0.73-1.109c-0.172-0.433-0.258-0.925-0.258-1.475c0-0.543,0.086-1.03,0.258-1.459
				c0.172-0.43,0.415-0.792,0.73-1.088c0.315-0.295,0.689-0.522,1.123-0.681c0.434-0.158,0.913-0.237,1.436-0.237
				c0.524,0,1.002,0.079,1.436,0.237c0.434,0.158,0.806,0.385,1.117,0.681c0.311,0.296,0.552,0.658,0.724,1.088
				c0.172,0.43,0.258,0.916,0.258,1.459c0,0.55-0.086,1.042-0.258,1.475c-0.172,0.433-0.413,0.803-0.724,1.109
				c-0.311,0.306-0.684,0.54-1.117,0.701C320.09,61.81,319.611,61.891,319.087,61.891z M319.087,60.85
				c0.311,0,0.595-0.058,0.853-0.175c0.258-0.117,0.477-0.284,0.657-0.5c0.18-0.217,0.319-0.478,0.417-0.784
				c0.098-0.306,0.147-0.648,0.147-1.026c0-0.756-0.188-1.349-0.565-1.779c-0.377-0.429-0.88-0.644-1.51-0.644
				c-0.638,0-1.146,0.215-1.522,0.644c-0.376,0.43-0.565,1.023-0.565,1.779c0,0.378,0.049,0.72,0.147,1.026
				c0.098,0.306,0.239,0.567,0.423,0.784c0.184,0.217,0.403,0.383,0.657,0.5C318.482,60.791,318.768,60.85,319.087,60.85z"/>
			<path d="M330.382,61.767l-1.731-2.64h-1.215v2.64h-1.424v-6.744h2.701c0.417,0,0.806,0.035,1.166,0.103
				c0.36,0.069,0.673,0.181,0.939,0.335c0.266,0.155,0.475,0.359,0.626,0.614c0.151,0.254,0.227,0.571,0.227,0.949
				c0,0.516-0.145,0.932-0.436,1.248c-0.291,0.316-0.681,0.543-1.172,0.681l1.915,2.815H330.382z M327.435,58.179h1.13
				c0.556,0,0.978-0.096,1.264-0.289c0.286-0.192,0.43-0.481,0.43-0.866c0-0.392-0.143-0.663-0.43-0.815
				c-0.287-0.151-0.708-0.227-1.264-0.227h-1.13V58.179z"/>
			<path d="M336.508,56.034h-2.32v-1.011h6.052v1.011h-2.308v5.734h-1.424V56.034z"/>
		</g>
		<g>
			<path d="M8.85,20.074h11.739v24.473h2.97c0.628-2.759,1.242-5.458,1.856-8.155c0.14,0.017,0.28,0.033,0.421,0.05
				c0,1.391,0,2.783,0,4.174c0.57-0.41,0.836-0.876,1.1-1.342c0.259-0.457,0.517-0.915,0.776-1.373
				c0.114,0.155,0.227,0.31,0.341,0.464c-0.271,2.147,0.228,4.166,0.71,6.181h4.291c0.105-0.24,0.187-0.485,0.231-0.73
				c0.279-1.54,0.433-3.103,0.635-4.658V20.074h11.739V9.828H8.85V20.074z"/>
			<path d="M70.28,30.47c0,0.863-0.058,1.641-0.174,2.338c-0.117,0.696-0.332,1.293-0.646,1.791
				c-0.316,0.497-0.746,0.888-1.293,1.169c-0.547,0.282-1.252,0.423-2.114,0.423c-0.796,0-1.46-0.149-1.99-0.448
				c-0.531-0.298-0.954-0.704-1.268-1.219c-0.316-0.514-0.539-1.119-0.672-1.816c-0.133-0.696-0.199-1.459-0.199-2.288V9.828H48.593
				v21.09c0,2.554,0.448,4.734,1.343,6.541c0.592,1.195,1.331,2.241,2.213,3.146c-0.079-1.227-0.17-2.454-0.244-3.681
				c0.537,1.531,0.946,3.074,1.283,4.628c0.141,0.113,0.281,0.227,0.428,0.334c1.178,0.865,2.512,1.549,4.003,2.054
				c0.098-0.549,0.195-1.097,0.293-1.646c0.268-1.492,0.497-2.999,1.629-4.002c0.543,1.426,1.071,2.814,1.599,4.201
				c0.069-0.039,0.137-0.079,0.206-0.118c0.148-1.197,0.297-2.394,0.446-3.591c0.478,1.722,0.861,3.404,1.111,5.106
				c0.078,0.531,0.27,0.898,0.546,1.161c0.462,0.036,0.931,0.061,1.406,0.076c0.44-1.667,0.035-3.511,1.335-4.915
				c0.15,1.457,0.097,2.897,0.176,4.33c0.01,0.172,0.036,0.38,0.074,0.59c1.406-0.019,2.739-0.114,4.003-0.279
				c0.229-0.756,0.456-1.507,0.683-2.256c0.091,0.035,0.182,0.071,0.273,0.106c0,0.674,0,1.347,0,2.021
				c0.432-0.071,0.847-0.16,1.261-0.25c0.267-0.212,0.478-0.38,0.727-0.578c0.058,0.123,0.116,0.245,0.174,0.369
				c0.922-0.244,1.785-0.551,2.587-0.924c0.144-0.6,0.286-1.195,0.428-1.787c0.06,0.005,0.119,0.01,0.179,0.015
				c0.049,0.437,0.099,0.874,0.157,1.386c0.236-0.128,0.466-0.263,0.691-0.404c0.197-0.459,0.394-0.848,0.697-1.116
				c1.141-1.01,0.958-1.771-0.05-2.643c-0.16-0.138-0.227-0.385-0.399-0.692c0.439,0.058,0.762,0.101,1.041,0.138
				c0.187-0.91,0.352-1.712,0.518-2.514c0.122,0.007,0.244,0.015,0.366,0.022c0.076,1.48,0.327,2.882,0.725,4.222
				c0.615-0.787,1.14-1.672,1.569-2.658c0.828-1.907,1.244-4.269,1.244-7.088V9.828H70.28V30.47z"/>
			<path d="M112.286,40.559c-0.672,0.693-0.182,2.284,1.186,3.196c0.245-1.216,0.492-2.443,0.739-3.67
				c0.101-0.033,0.202-0.067,0.304-0.1c0.393,0.931,0.785,1.863,1.178,2.794c0.118-0.02,0.237-0.041,0.355-0.061
				c0-1.842,0-3.685,0-5.527c0.54,0.74,0.706,1.508,0.97,2.242c0.166,0.463,0.288,1.253,1.098,0.562
				c-0.682,1.608-0.551,3.35,0.409,4.038c0.163-1.37,0.345-2.676,0.446-3.988c0.016-0.204-0.336-0.436-0.518-0.655
				c0.303-0.796,0.607-1.592,1.06-2.783c0.534,2.744,0.997,5.122,1.478,7.59c1.208-0.719,1.624-1.615,1.776-2.581
				c-0.178-1.031-0.362-2.084-0.555-3.162c-0.199-1.111-0.44-2.213-0.721-3.308c-0.282-1.094-0.672-2.105-1.169-3.034
				c-0.63-0.928-1.401-1.716-2.313-2.363c-0.912-0.646-2.098-1.102-3.556-1.368v-0.1c2.487-0.597,4.493-1.617,6.019-3.059
				c1.525-1.443,2.288-3.49,2.288-6.143c0-1.658-0.307-3.075-0.92-4.253c-0.614-1.177-1.501-2.139-2.661-2.885
				c-1.161-0.746-2.57-1.285-4.228-1.617c-1.658-0.331-3.532-0.497-5.621-0.497H87.789v34.72h0.262
				c1.399-2.21,2.677-4.231,3.936-6.22c-0.254,2.112-1.536,3.821-2.625,5.628c-0.121,0.201-0.26,0.396-0.404,0.591h2.59
				c0.384-1.265,0.588-2.673,0.96-3.943c0.17-0.582,0.272-1.184,0.491-2.154c0.328,0.597,0.392,0.844,0.551,0.979
				c0.451,0.382,0.94,0.719,1.414,1.074c0.629-0.889-0.277-1.198-0.641-1.715c-0.04-0.056-0.019-0.156-0.014-0.102
				c0.48-0.038,0.963-0.076,1.28-0.101c0.911,1.946,1.85,3.95,2.792,5.962h0.657c-0.189-0.672-0.379-1.344-0.568-2.016
				c0.123-0.067,0.245-0.134,0.368-0.201c0.278,0.446,0.512,0.93,0.847,1.328c0.254,0.301,0.554,0.571,0.909,0.889h0.527V32.758
				h2.984c0.829,0,1.567,0.099,2.214,0.298s1.169,0.696,1.567,1.492c0.265,0.531,0.48,1.227,0.647,2.089
				c0.096,0.501,0.185,1.028,0.27,1.568c0.007-0.001,0.014-0.002,0.02-0.002c0.018,0.169,0.037,0.338,0.055,0.51
				c0.034,0.229,0.07,0.45,0.102,0.685c0.077,0.572,0.147,1.129,0.214,1.679c0.597-0.661,0.969-1.072,1.271-1.406
				C111.033,39.949,111.693,40.27,112.286,40.559z M108.954,23.258c-0.316,0.497-0.721,0.879-1.219,1.144
				c-0.497,0.266-1.069,0.431-1.716,0.497c-0.647,0.067-1.318,0.099-2.014,0.099h-3.482v-7.411h3.681c0.663,0,1.31,0.042,1.94,0.124
				c0.629,0.083,1.185,0.249,1.666,0.497c0.48,0.249,0.87,0.605,1.169,1.069c0.298,0.465,0.448,1.094,0.448,1.89
				C109.427,22.064,109.269,22.76,108.954,23.258z"/>
			<path d="M126.488,44.547h1.861c0.447-1.955,0.877-3.916,1.317-5.898c0.28,0.747,0.524,1.4,0.768,2.053
				c0.699-0.435,1.398-0.871,2.191-1.365c0.151,0.618,0.309,1.26,0.55,2.247c0.212-0.748,0.331-1.169,0.45-1.589
				c0.141,0.778,0.088,1.527,0.158,2.265c0.05,0.525,0.265,1.035,0.406,1.551c0.208-0.506,0.555-0.999,0.601-1.519
				c0.183-2.076,0.273-4.161,0.398-6.242c0.135,0.004,0.269,0.008,0.404,0.013c0,2.828,0,5.657,0,8.485h1.135
				c0.545-2.218,1.093-4.453,1.659-6.757c0.103,0.799,0.191,1.483,0.31,2.4c0.145-1.127,0.259-2.013,0.373-2.899
				c0.144,0.017,0.288,0.035,0.432,0.052c0,1.411,0,2.822,0,4.234c0.043,0.003,0.086,0.006,0.129,0.009
				c0.049-0.776,0.098-1.552,0.147-2.327c0.017,0.011,0.027,0.022,0.043,0.033v-7.13h15.917v-8.357h-15.917v-5.621h16.415V9.828
				h-29.746V44.547z"/>
			<path d="M184.437,28.829h-0.1l-4.526-19.001h-19.698v34.459c0.211-0.36,0.422-0.72,0.632-1.077
				c-0.183,0.564-0.26,0.995-0.2,1.338h1.341c-0.113-0.625-0.315-1.184-1.062-1.516c-0.089-0.523-0.177-1.046-0.311-1.835
				c0.706,1.007,1.267,1.807,1.987,2.834c0.292-1.682,0.538-3.099,0.838-4.821c0.378,1.458,0.663,2.56,0.956,3.666
				c0.705,0.262,0.812-0.044,0.572-0.654c-0.226-0.575-0.47-1.142-0.706-1.713c0.121-0.075,0.242-0.15,0.363-0.225
				c0.553,0.604,1.106,1.208,1.778,1.941c0.098-1.052,0.179-1.931,0.261-2.809c0.128-0.015,0.256-0.03,0.384-0.046
				c0.335,1.74,0.67,3.479,0.997,5.179h3.512l0.149-27.258h0.199l6.616,27.258h0.75c0.058-0.958,0.13-1.89,0.34-2.79
				c0.33-1.413,1.042-2.737,1.586-4.1c0.082,0.032,0.164,0.065,0.246,0.097c0.259,2.007,0.519,4.014,0.77,5.959
				c0.435-0.681,0.868-1.358,1.356-2.123c0.126,0.474,0.212,0.795,0.297,1.115c0.156-0.014,0.312-0.028,0.468-0.042
				c-0.085-1.142-0.204-2.283-0.246-3.427c-0.043-1.154-0.009-2.312-0.009-3.468c0.143-0.001,0.286-0.001,0.429-0.002
				c0.447,1.769,0.894,3.538,1.378,5.455c0.523-1.112,0.933-1.983,1.343-2.854c0.112,0.019,0.224,0.038,0.337,0.057
				c0,1.984,0,3.971,0,6.122h0.649c0.101-0.211,0.201-0.404,0.313-0.587c0.682-1.112,1.596-2.129,2.062-3.311l0.099-0.395
				c-0.005-0.587-0.585-1.356-0.761-1.807c0.419-0.562,0.79-1.059,1.131-1.517c0.094,0.248,0.184,0.5,0.272,0.752l5.099-20.394h0.1
				l0.199,27.22c0.448-2.053,0.891-4.078,1.344-6.154c0.706,1.071,1.237,1.878,1.769,2.684c0.116-0.038,0.233-0.076,0.349-0.115
				c0.051-0.923,0.101-1.846,0.168-3.075c0.485,1.443,0.866,2.574,1.365,4.058c0.775-1.523,1.447-2.841,2.118-4.159
				c-0.224,1.288-0.633,2.515-1.214,3.653c-0.535,1.049-0.848,2.082-0.677,3.145h1.262c0.331-1.405,0.655-2.783,0.955-4.06
				c0.218,0.614,0.496,1.397,0.856,2.41c0.621-0.911,1.03-1.642,1.564-2.267c0.912-1.065-0.532-1.392-0.603-1.815
				c0.583-0.219,1.145-0.268,1.416-0.573c0.348-0.393,0.461-0.993,0.675-1.504c-0.209,1.76-0.04,3.397,0.592,4.885V9.828h-19.648
				L184.437,28.829z"/>
			<path d="M240.843,9.828h-18.354l-12.103,34.48c0.02,0.021,0.039,0.042,0.059,0.062c0.087-0.29,0.18-0.597,0.276-0.917
				c0.391,0.341,0.716,0.625,1.254,1.095h0.043c0.76-3.012,1.456-5.772,2.151-8.532c0.116,0.014,0.232,0.028,0.347,0.042
				c0,1.85,0,3.7,0,5.908c0.412-1.077,0.685-1.789,0.995-2.599c0.388,1.285,0.734,2.429,1.079,3.574
				c0.138,0.038,0.275,0.076,0.413,0.114c0.745-1.863,1.49-3.727,2.235-5.59c0.106,0.004,0.211,0.009,0.317,0.013
				c-0.168,2.276-0.336,4.551-0.504,6.827c0.15,0.042,0.3,0.085,0.45,0.127c0.661-1.724,2.858-2.419,2.932-4.496
				c0.806,1.292,1.398,0.228,2.075-0.368c0.152-0.134,0.349-0.218,0.586-0.328l0.465-1.635c0.012-0.096,0.023-0.192,0.035-0.288
				c0.016-0.001,0.032-0.003,0.048-0.004l0.079-0.277h5.2c0.09-0.317,0.185-0.649,0.285-1c0.046,0.342,0.091,0.674,0.136,1h5.621
				l1.115,3.662c0.339-0.402,0.567-0.844,0.689-1.439c0.159-0.774,0.552-1.5,0.841-2.247c0.135,0.05,0.269,0.1,0.404,0.15
				c0,1.261,0,2.522,0,3.898c0.668-0.895,1.301-1.745,2.076-2.783c0,0.869-0.079,1.46,0.016,2.02
				c0.203,1.189,0.481,2.366,0.762,3.54c0.057,0.239,0.126,0.476,0.199,0.712h3.156c0.248-2.917,0.476-5.6,0.704-8.28
				c0.128,0.003,0.257,0.005,0.385,0.008c0,2.395,0,4.79,0,7.185c0.068-0.005,0.135-0.011,0.203-0.016
				c0.526-3.052,1.052-6.103,1.578-9.155c0.14,0.014,0.279,0.027,0.419,0.041c0,1.613,0,3.225,0,4.838
				c0.097,0,0.193-0.001,0.29-0.001c0.071-1.058,0.142-2.117,0.213-3.175c0.395,2.908,0.187,5.75-0.467,8.556h1.681
				c0.05-0.43,0.1-0.865,0.152-1.314c0.047,0.47,0.09,0.905,0.131,1.314h1.045c0.104-0.339,0.206-0.675,0.311-1.016L240.843,9.828z
				 M227.563,28.68l3.83-11.391h0.099l3.78,11.391H227.563z"/>
			<path d="M283.969,28.157c-0.895-1.343-2.023-2.388-3.383-3.134c-1.36-0.746-2.827-1.293-4.402-1.641
				c-1.576-0.348-3.043-0.654-4.402-0.92c-1.36-0.265-2.487-0.572-3.383-0.92c-0.895-0.348-1.343-0.903-1.343-1.666
				c0-0.563,0.199-0.995,0.597-1.293c0.398-0.298,0.887-0.522,1.467-0.671c0.58-0.149,1.201-0.24,1.865-0.274
				c0.663-0.033,1.26-0.05,1.79-0.05c1.89,0,3.706,0.158,5.447,0.473c1.741,0.316,3.357,0.738,4.849,1.268v-8.904
				c-1.824-0.365-3.723-0.655-5.695-0.871c-1.973-0.215-3.905-0.323-5.795-0.323c-1.99,0-4.038,0.141-6.143,0.423
				c-2.107,0.282-4.029,0.821-5.77,1.617c-1.741,0.796-3.167,1.932-4.278,3.407c-1.112,1.476-1.666,3.407-1.666,5.795
				c0,2.256,0.448,4.054,1.343,5.397c0.895,1.343,2.022,2.396,3.382,3.159c1.359,0.763,2.827,1.327,4.402,1.691
				c1.575,0.365,3.042,0.689,4.402,0.97c1.359,0.282,2.487,0.614,3.382,0.995c0.895,0.382,1.343,0.954,1.343,1.716
				c0,0.431-0.166,0.796-0.497,1.094c-0.332,0.298-0.771,0.547-1.318,0.746c-0.547,0.199-1.178,0.34-1.89,0.423
				c-0.549,0.064-1.129,0.095-1.727,0.11c0.001,0.004,0.001,0.008,0.002,0.012c-1.944-0.009-3.935-0.197-5.974-0.57
				c-1.263-0.23-2.464-0.54-3.618-0.911c-0.469-0.17-1.07-0.445-1.515-0.635v5.082c0.424-1.388,0.98-2.697,1.428-4.082
				c0,0.334,0,0.669,0.004,1.003c0.024,1.921-0.877,4.023,1.129,5.544c0.377-0.501,0.792-1.051,1.196-1.587
				c0.315,1.329,0.619,2.609,0.921,3.884c0.173,0.025,0.341,0.045,0.513,0.069c-0.135-2.577-0.271-5.154-0.406-7.731
				c0.213-0.031,0.426-0.062,0.639-0.093c0.514,2.434,1.029,4.868,1.578,7.47c0.443-0.579,0.718-0.94,0.994-1.301
				c0.127,0.029,0.254,0.058,0.381,0.087c-0.461,0.624-0.748,1.236-0.835,1.844c0.628,0.061,1.266,0.112,1.916,0.153
				c0.366-1.147,0.638-2.314,0.871-3.487c-0.195,1.192-0.365,2.42-0.601,3.476c0.415,0.02,0.83,0.039,1.254,0.051
				c0.14-1.578-0.142-3.609-0.322-5.3c0,0.001,0,0.002-0.001,0.003c0.162-0.908,0.319-1.816,0.494-2.718
				c0.433,2.309,0.868,4.624,1.322,7.043c0.34-0.235,0.597-0.413,0.9-0.622c-0.076,0.577-0.149,1.132-0.222,1.682
				c0.141-0.001,0.283-0.007,0.424-0.01c0.396-0.875,0.792-1.75,1.188-2.625c0.043,0.029,0.086,0.058,0.129,0.087
				c-0.179,0.84-0.358,1.681-0.537,2.521c0.509-0.022,1.021-0.056,1.536-0.101c0.643-1.337,1.622-2.63,0.251-3.852
				c0.427-0.506,0.848-0.861,1.078-1.312c0.406-0.797,0.695-1.653,1.033-2.484c0.997,1.842,0.129,4.073,2.279,5.351
				c-0.107-1.363-0.208-2.645-0.309-3.927c0.151-0.021,0.301-0.042,0.452-0.063c0.35,1.727,0.701,3.453,1.051,5.18
				c0.764-0.255,1.492-0.559,2.188-0.905c0.216-1.27,0.55-2.52,1.128-3.736c0.078,1.004,0.114,2.01,0.138,3.018
				c1.229-0.798,2.271-1.805,3.118-3.029c1.044-1.509,1.567-3.424,1.567-5.745C285.312,31.283,284.865,29.5,283.969,28.157z"/>
			<g>
				<path d="M287.053,20.074h11.739v24.473h1.125c0.184-0.685,0.275-1.408,0.212-2.196c-0.171-2.127-0.038-4.278-0.038-6.202
					c0.403,0.58,0.781,1.366,1.377,1.915c0.585,0.538,1.391,0.836,2.132,1.257c-0.368,1.904,1.636,3.14,2.105,5.226h0.112
					c0.542-2.065,1.006-3.833,1.538-5.858c0.769,1.049,1.355,1.85,2.13,2.907c0-1.59,0-2.804,0-4.019
					c0.131-0.021,0.262-0.042,0.393-0.063c0.351,1.818,0.702,3.636,1.074,5.567c0.49-0.355,0.832-0.603,1.171-0.848V20.074h11.739
					V9.828h-36.809V20.074z"/>
			</g>
			<g>
				<path d="M342.969,36.191h-0.132h-3.407v-4.725h16.316v-8.357h-16.316v-4.924h17.062V9.828h-30.094v34.72h0.588
					c0.239-0.615,0.373-1.301,0.384-1.957c0.012-0.771-0.218-1.546-0.406-2.714c0.5,0.627,0.735,0.922,0.977,1.225
					c0.304-0.331,0.534-0.582,0.808-0.88c0.271,0.44,0.473,0.767,0.674,1.094c0.135-0.001,0.269-0.001,0.404-0.002
					c0.278-1.353,0.557-2.707,0.835-4.06c0.102-0.022,0.204-0.045,0.307-0.067c0.353,1.924,0.706,3.848,1.06,5.771
					c0.125,0.007,0.251,0.013,0.376,0.02c-0.094-1.366,2.347-1.295,1.552-2.863c0.541,0.11,1.098,0.223,1.656,0.337
					c-0.451,1.034,0.252,2.872,1.564,3.989c0-1.242,0.034-2.437-0.013-3.629c-0.027-0.692-0.404-1.018-1.121-0.695
					c0.472-0.644,0.945-1.287,1.459-1.988c0.306,1.83,0.628,3.755,0.974,5.822c1.054-1.619,1.974-3.033,2.895-4.447
					c0.028,0.702-0.27,1.217-0.487,1.764c-0.44,1.111-1.245,2.164-1.669,3.28h2.849c0.319-2.663,0.234-5.332,0.805-7.929
					c0.071,0.928,0.142,1.865,0.218,2.87c0.283-0.481,0.504-0.856,0.724-1.23c0.318,0.538,0.273,1.029,0.332,1.508
					c0.046,0.376,0.218,0.737,0.335,1.104c0.322-0.191,0.666-0.353,0.959-0.581c0.349-0.27,0.654-0.597,0.887-0.814
					c0.715,0.786,1.334,1.467,2.007,2.207c0.333-0.249,0.726-0.577,1.154-0.851c0.4-0.256,0.838-0.455,1.259-0.679
					c-1.351,1.201-2.186,2.749-2.424,4.395h3.836c0.051-0.288,0.087-0.588,0.121-0.895c0.251-2.278,0.581-4.547,0.878-6.82
					c0.076,0.005,0.152,0.009,0.228,0.014c0.073,1.16,0.146,2.321,0.243,3.849c0.277-0.582,0.368-0.772,0.459-0.963
					c0.086,0.017,0.171,0.034,0.257,0.05c-0.092,1.584-0.185,3.173-0.277,4.765h2.605v-8.357H342.969z"/>
			</g>
			<g>
				<path d="M394.172,35.146c-0.282-1.094-0.672-2.105-1.169-3.034c-0.63-0.928-1.401-1.716-2.313-2.363
					c-0.912-0.646-2.098-1.102-3.557-1.368v-0.1c2.487-0.597,4.493-1.617,6.019-3.059c1.525-1.443,2.288-3.49,2.288-6.143
					c0-1.658-0.307-3.075-0.92-4.253c-0.614-1.177-1.501-2.139-2.661-2.885c-1.161-0.746-2.57-1.285-4.228-1.617
					c-1.658-0.331-3.532-0.497-5.621-0.497h-21.539v27.441c0.187,0.979,0.35,1.83,0.512,2.679c0.054,0.005,0.109,0.01,0.163,0.015
					c0.195-1.267,0.39-2.534,0.586-3.801c0.072,0.01,0.145,0.02,0.217,0.03c0,2.785,0,5.57,0,8.355h0.362
					c0.115-0.816,0.23-1.631,0.345-2.447c0.066-0.015,0.132-0.029,0.199-0.044c0.259,0.83,0.517,1.661,0.776,2.491h5.726
					c-0.496-1.173-1.493-2.307-1.989-3.494c0.158-0.079,0.316-0.157,0.474-0.236c0.829,1.243,1.659,2.487,2.488,3.73h0.973
					c0-1.031,0-2.063,0-3.094c0-1.31,0-2.619,0-3.929c0.14,0.005,0.279,0.01,0.419,0.015c0.351,2.263,0.702,4.527,1.087,7.008h0.775
					c0.077-0.145,0.149-0.281,0.219-0.412V32.758h2.985c0.829,0,1.567,0.099,2.214,0.298c0.646,0.199,1.169,0.696,1.567,1.492
					c0.265,0.531,0.48,1.227,0.647,2.089c0.165,0.863,0.315,1.783,0.448,2.761c0.132,0.978,0.249,1.924,0.348,2.835
					c0.1,0.912,0.232,1.684,0.398,2.313h0.751c0.318-1.076,0.614-2.077,0.917-3.102c0.51,0.729,1.162,1.662,1.844,2.637
					c0.73-0.616,1.361-1.148,1.987-1.677c0.231-1.149,0.462-2.297,0.694-3.446c0.171,0.011,0.343,0.021,0.514,0.032
					c0.121,1.837,0.242,3.68,0.366,5.555h3.887c0.36-2.014,0.674-4.036,1.559-5.909c-0.011-0.062-0.022-0.122-0.033-0.185
					C394.694,37.343,394.453,36.24,394.172,35.146z M381.637,23.258c-0.316,0.497-0.721,0.879-1.218,1.144
					c-0.498,0.266-1.069,0.431-1.716,0.497c-0.647,0.067-1.318,0.099-2.014,0.099h-3.482v-7.411h3.681
					c0.663,0,1.31,0.042,1.94,0.124c0.629,0.083,1.185,0.249,1.666,0.497c0.48,0.249,0.87,0.605,1.169,1.069
					c0.298,0.465,0.448,1.094,0.448,1.89C382.11,22.064,381.952,22.76,381.637,23.258z"/>
			</g>
		</g>
	</g>
</g>
</svg>
