<?xml version="1.0" encoding="UTF-8"?> <svg xmlns="http://www.w3.org/2000/svg" xmlns:xlink="http://www.w3.org/1999/xlink" viewBox="0 0 2481.35 500"><defs><style>.cls-1{isolation:isolate;}.cls-2{fill:#007363;}.cls-3,.cls-4,.cls-5,.cls-6,.cls-7,.cls-8{stroke:#1d1d1b;stroke-miterlimit:10;stroke-width:1.88px;}.cls-3{fill:url(#linear-gradient);}.cls-4{fill:url(#linear-gradient-2);}.cls-5{fill:url(#linear-gradient-3);}.cls-6{fill:url(#linear-gradient-4);}.cls-7{fill:url(#linear-gradient-5);}.cls-8{fill:url(#linear-gradient-6);}.cls-15,.cls-9{opacity:0.75;}.cls-10,.cls-20,.cls-21,.cls-9{mix-blend-mode:multiply;}.cls-9{fill:url(#New_Gradient_Swatch6);}.cls-10{opacity:0.8;}.cls-11{fill:url(#linear-gradient-7);}.cls-12,.cls-20{opacity:0.85;}.cls-12,.cls-15,.cls-22{mix-blend-mode:screen;}.cls-13{fill:url(#Gradient_Swatch_4);}.cls-14{fill:url(#linear-gradient-8);}.cls-15{fill:url(#Gradient_Swatch_4-2);}.cls-16{opacity:0.5;}.cls-17{fill:url(#linear-gradient-9);}.cls-18{fill:url(#Gradient_Swatch_4-3);}.cls-19{fill:url(#linear-gradient-10);}.cls-20{fill:url(#linear-gradient-11);}.cls-21{opacity:0.9;fill:url(#linear-gradient-12);}.cls-22{fill:url(#linear-gradient-13);}</style><linearGradient id="linear-gradient" x1="32.16" y1="314.05" x2="151.87" y2="106.71" gradientUnits="userSpaceOnUse"><stop offset="0" stop-color="#007363"></stop><stop offset="0" stop-color="#097869"></stop><stop offset="0.03" stop-color="#379185"></stop><stop offset="0.05" stop-color="#62a99f"></stop><stop offset="0.08" stop-color="#88beb6"></stop><stop offset="0.11" stop-color="#a8cfca"></stop><stop offset="0.14" stop-color="#c4dedb"></stop><stop offset="0.18" stop-color="#daeae8"></stop><stop offset="0.22" stop-color="#ebf4f2"></stop><stop offset="0.27" stop-color="#f6fafa"></stop><stop offset="0.35" stop-color="#fdfefe"></stop><stop offset="0.55" stop-color="#fff"></stop></linearGradient><linearGradient id="linear-gradient-2" x1="72.48" y1="418.78" x2="261.22" y2="91.86" gradientUnits="userSpaceOnUse"><stop offset="0" stop-color="#007363"></stop><stop offset="0.04" stop-color="#057666"></stop><stop offset="0.09" stop-color="#137e6f"></stop><stop offset="0.14" stop-color="#2b8b7d"></stop><stop offset="0.2" stop-color="#4c9d91"></stop><stop offset="0.26" stop-color="#76b4ab"></stop><stop offset="0.32" stop-color="#aad1cb"></stop><stop offset="0.38" stop-color="#e7f2f0"></stop><stop offset="0.4" stop-color="#fff"></stop></linearGradient><linearGradient id="linear-gradient-3" x1="-19.62" y1="641.19" x2="183.22" y2="289.86" gradientTransform="matrix(1.15, -0.14, 0.13, 1.05, 109.4, -191.65)" gradientUnits="userSpaceOnUse"><stop offset="0" stop-color="#007363"></stop><stop offset="0.05" stop-color="#057666"></stop><stop offset="0.11" stop-color="#137e6f"></stop><stop offset="0.18" stop-color="#2b8b7d"></stop><stop offset="0.25" stop-color="#4c9d91"></stop><stop offset="0.32" stop-color="#76b4ab"></stop><stop offset="0.39" stop-color="#aad1cb"></stop><stop offset="0.47" stop-color="#e7f2f0"></stop><stop offset="0.5" stop-color="#fff"></stop></linearGradient><linearGradient id="linear-gradient-4" x1="1614.15" y1="-271.24" x2="1757.1" y2="-653" gradientTransform="matrix(0.5, 0.16, -0.2, 0.72, -836.49, 299.64)" gradientUnits="userSpaceOnUse"><stop offset="0" stop-color="#11332c"></stop><stop offset="0.29" stop-color="#007363"></stop><stop offset="0.78" stop-color="#fff"></stop></linearGradient><linearGradient id="linear-gradient-5" x1="1496.58" y1="148.69" x2="1632.84" y2="-215.18" gradientTransform="matrix(0.56, 0.19, -0.29, 1.1, -698.04, 6.79)" gradientUnits="userSpaceOnUse"><stop offset="0" stop-color="#0c2b25"></stop><stop offset="0.37" stop-color="#007363"></stop><stop offset="0.85" stop-color="#fff"></stop></linearGradient><linearGradient id="linear-gradient-6" x1="1379.21" y1="358.46" x2="1515.63" y2="-5.87" gradientTransform="matrix(0.7, 0.13, -0.15, 1.29, -682, -126.11)" gradientUnits="userSpaceOnUse"><stop offset="0" stop-color="#12352e"></stop><stop offset="0.48" stop-color="#007363"></stop><stop offset="0.93" stop-color="#fff"></stop></linearGradient><linearGradient id="New_Gradient_Swatch6" x1="98.57" y1="178.48" x2="121.16" y2="266.21" gradientUnits="userSpaceOnUse"><stop offset="0.76" stop-color="#007363"></stop><stop offset="1"></stop></linearGradient><linearGradient id="linear-gradient-7" x1="87.18" y1="219.37" x2="117.21" y2="246.53" gradientUnits="userSpaceOnUse"><stop offset="0.76" stop-color="#007363"></stop><stop offset="1" stop-color="#0f302a"></stop></linearGradient><linearGradient id="Gradient_Swatch_4" x1="79.36" y1="198.61" x2="115.23" y2="226.04" gradientUnits="userSpaceOnUse"><stop offset="0.29" stop-color="#fff"></stop><stop offset="1" stop-color="#007363"></stop></linearGradient><linearGradient id="linear-gradient-8" x1="147.48" y1="236.24" x2="182.3" y2="267.74" gradientUnits="userSpaceOnUse"><stop offset="0.76" stop-color="#007363"></stop><stop offset="1" stop-color="#0e302a"></stop></linearGradient><linearGradient id="Gradient_Swatch_4-2" x1="124.6" y1="219.35" x2="232.25" y2="286.69" xlink:href="#Gradient_Swatch_4"></linearGradient><linearGradient id="linear-gradient-9" x1="159.09" y1="251" x2="195.09" y2="281.14" gradientUnits="userSpaceOnUse"><stop offset="0" stop-color="#fff"></stop><stop offset="0.65" stop-color="#007363"></stop><stop offset="1"></stop></linearGradient><linearGradient id="Gradient_Swatch_4-3" x1="139.74" y1="241.08" x2="199.88" y2="283.57" xlink:href="#Gradient_Swatch_4"></linearGradient><linearGradient id="linear-gradient-10" x1="219.17" y1="237.26" x2="346.06" y2="376.73" gradientUnits="userSpaceOnUse"><stop offset="0.28" stop-color="#fff"></stop><stop offset="0.91" stop-color="#007363"></stop></linearGradient><linearGradient id="linear-gradient-11" x1="263.87" y1="171.48" x2="313.38" y2="461.97" gradientUnits="userSpaceOnUse"><stop offset="0.63" stop-color="#007363"></stop><stop offset="1"></stop></linearGradient><linearGradient id="linear-gradient-12" x1="326.73" y1="62.09" x2="340.12" y2="319.82" gradientUnits="userSpaceOnUse"><stop offset="0.55" stop-color="#007363" stop-opacity="0.7"></stop><stop offset="1" stop-color="#0e2d27"></stop></linearGradient><linearGradient id="linear-gradient-13" x1="395.64" y1="104.98" x2="177.25" y2="483.25" gradientUnits="userSpaceOnUse"><stop offset="0.29" stop-color="#fff" stop-opacity="0.7"></stop><stop offset="1" stop-color="#007363"></stop></linearGradient></defs><title>Standard no bevel</title><g class="cls-1"><g id="Layer_2" data-name="Layer 2"><g id="No_Bevel" data-name="No Bevel"><g id="Strapline"><path class="cls-2" d="M605.54,420.56V95.88h68.84V363.71h131.7v56.85Z"></path><path class="cls-2" d="M989.45,420.56l-13.1-33.76h-1.78q-17.1,21.54-35.2,29.87T892.18,425q-35.76,0-56.3-20.43t-20.54-58.19q0-39.53,27.65-58.29t83.39-20.77L969.47,266V255.11q0-37.76-38.65-37.76-29.76,0-70,18l-22.43-45.75q42.85-22.43,95-22.43,50,0,76.62,21.77t26.65,66.18V420.56Zm-20-115-26.21.89q-29.53.88-44,10.66t-14.44,29.76q0,28.65,32.87,28.65,23.53,0,37.64-13.55t14.11-36Z"></path><path class="cls-2" d="M1273.88,420.56l-19.1-86.84L1229,224h-1.56l-45.3,196.54h-72.84l-70.63-248.29h67.52l28.64,109.93q6.89,29.54,14,81.51h1.33q.88-16.87,7.77-53.53l3.55-18.87,30.65-119h74.62l29.09,119q.89,4.89,2.78,14.43t3.66,20.32q1.79,10.79,3.22,21.1t1.67,16.55h1.33q2-16,7.11-43.87T1323,282.2l29.76-109.93h66.4l-71.51,248.29Z"></path><path class="cls-2" d="M1657.26,420.56h-67.73v-145q0-26.87-9.55-40.31t-30.43-13.43q-28.42,0-41.08,19t-12.66,63V420.56h-67.74V172.27h51.75l9.1,31.76h3.78a71.64,71.64,0,0,1,31.2-27.21q19.88-9.21,45.2-9.21,43.31,0,65.73,23.43t22.43,67.62Z"></path><path class="cls-2" d="M1760.61,405.46q20.87,0,36.42-3.56v17.77q-16,5.32-36.87,5.33-32,0-47.19-17.1t-15.21-53.74V198.25H1662V185.37l35.76-10,11.1-54.63h11.33v58.41H1791v19.09h-70.84v152.8q0,27.76,9.77,41.08T1760.61,405.46Z"></path><path class="cls-2" d="M1901.23,425q-52.63,0-82.06-32.42t-29.43-90.84q0-57.74,28.43-92.49t76.62-34.76q42.64,0,67.29,29.76t24.65,80.84v17.76H1812.84q.45,49.75,23.21,76t65.18,26.2a201.67,201.67,0,0,0,36.31-2.89q15.66-2.88,39.64-12.43v20q-20.43,8.88-37.75,12.1A210.24,210.24,0,0,1,1901.23,425Zm-6.44-231q-34.87,0-56,23t-24.65,66.29h149.24q0-42-18.21-65.62T1894.79,194Z"></path><path class="cls-2" d="M2115.63,425q-51.75,0-81.06-32.65t-29.32-91.05q0-60,30.43-93.38T2119,174.49a167.56,167.56,0,0,1,60,10.88l-6,19.55q-31.3-10.44-54.41-10.44-44.41,0-67.29,27.43t-22.87,79q0,48.86,22.87,76.5t64,27.65q32.87,0,61.07-11.77v20.43Q2153.15,425,2115.63,425Z"></path><path class="cls-2" d="M2369.55,420.56V264q0-36.42-15.32-53t-47.53-16.54q-43.3,0-63.4,21.87t-20.1,71V420.56h-22V75h22V184.93l-1.11,30.87h1.56q13.54-21.77,34.2-31.54t51.3-9.77q82.16,0,82.17,88.17v157.9Z"></path><path class="cls-2" d="M2412.89,176.31h-10.33V136.2h-13.23v-8.59h36.78v8.59h-13.22Z"></path><path class="cls-2" d="M2449.9,176.31l-11.72-38.21h-.3q.63,11.66.63,15.56v22.65h-9.23v-48.7h14.06l11.52,37.24h.2l12.23-37.24h14.06v48.7h-9.63V153.26c0-1.09,0-2.35.05-3.77s.18-5.19.45-11.32h-.3l-12.56,38.14Z"></path></g><path class="cls-3" d="M11.49,302.12S6,280.8,5.56,272.27s-.08-15.87-.08-15.87,44.12-43.44,97-76.83c61.23-38.64,96.35-47.83,94.22-46.83-5.27,2.47-51.44,30.51-96.12,69.66C68.86,230.22,16.78,294.4,11.49,302.12Z"></path><path class="cls-4" d="M68.81,416.67S58.47,405.53,53,398.8c-5.3-6.5-16.31-29.25-16.31-29.25S73.31,304.65,129,247c22.8-23.62,52.39-49.29,82.89-72.19,45.48-34.16,98.61-55.9,97.49-55.09-20.53,15-61,49.73-89.34,77.43-20.37,19.9-40.12,42-73.07,88.06C106.8,341.28,71.72,412.43,68.81,416.67Z"></path><path class="cls-5" d="M173,481.86s-19.11-4.77-31.77-10.44c-9.63-4.32-24.21-14.29-24.21-14.29s34.09-89.36,94.64-170.89c24.22-32.61,58.09-72.51,93.71-104.36,53.13-47.49,107.07-77,105.16-75.14-1.45,1.37-67.48,63.58-98.17,101.8-9.07,11.29-41,52.4-74.45,114.14C197.68,397,176.13,476.37,173,481.86Z"></path><path class="cls-6" d="M33.85,362S20.71,335.65,18.48,330c-2.05-5.22-5.3-24-5.3-24s45.66-58.07,91.68-100.33c47.07-43.23,99.52-73.41,99.61-73.42,1.13-.2-4.9,4.6-4.9,4.6-.62.54-36.49,32.26-81.8,86.08C72.11,277.16,35,360.45,33.85,362Z"></path><path class="cls-7" d="M110.78,452.21l-21-14.82-16.3-15.85s43.63-90.58,104-166.74C235.73,181.24,310.84,121.94,310.8,122c-5.45,6.36-55.13,64-109.89,145.9C143.32,354,111.53,451,110.78,452.21Z"></path><path class="cls-8" d="M276.66,484.91s-14.5,10.77-51.76,5.48-41.6-9.34-41.6-9.34S210,386.48,274,282c74.73-121.85,137.61-171.54,140.79-174.15,2.22-1.83-71.14,93.73-105.15,180C262.53,407.38,276.66,484.91,276.66,484.91Z"></path><path class="cls-9" d="M16.76,294.08l-.93-5.36S50.43,242,91.52,206.66c33.66-27.9,56.75-48.84,106.38-75.7-40.79,25-84.36,57.43-112.36,84.29C49.17,253.72,23.12,285.84,16.76,294.08Z"></path><g class="cls-10"><path class="cls-11" d="M35.89,355.45l-3.37-7.09s27.87-58.72,67.47-109c43.19-54.83,72.55-82.85,97.91-102.31-16,15-30.8,30.52-53.51,54.08-13.78,15.81-21.27,24.35-46.66,56.63C67.93,292.19,42,341.16,35.89,355.45Z"></path></g><g class="cls-12"><path class="cls-13" d="M19.14,304.78l-.93-4.28S53.35,257.65,99.57,212c37.85-37.4,93-72.23,98.33-74.93-19.26,12.51-71,51.12-104.79,84.14C70.24,243.53,21.46,301.59,19.14,304.78Z"></path></g><g class="cls-10"><path class="cls-14" d="M68.76,415.32l-3.65-4.48s41.44-83.13,97.54-153.6C217.91,187.83,265.12,152.17,301,124.88c-18.84,15.44-52.53,43.93-80.87,71.63-20.37,19.9-40.66,42.28-73.61,88.31C106.4,340.93,71.67,411.08,68.76,415.32Z"></path></g><path class="cls-15" d="M43,374l-3.39-7.52s43.82-74.22,101.69-130.93c60.6-56.57,110.94-90.85,160.15-111.26C242.56,158,190.28,194.89,141.38,244.85A679,679,0,0,0,43,374Z"></path><g class="cls-16"><path class="cls-17" d="M110,452.21l-3.46-2.5s32-95.6,84.05-175c51.28-78.19,112.81-145.65,112.78-145.6-5.46,6.35-49,56.77-103.72,138.7C142.08,354,110.75,451,110,452.21Z"></path></g><g class="cls-12"><path class="cls-18" d="M76.6,424.08l-2.73-2.25s45-90.72,104.59-167.44C227,191.84,297,134.05,303.38,129.1c-8.3,7.22-92.36,85.76-135,142.93C139.55,310.71,77,423.39,76.6,424.08Z"></path></g><path class="cls-19" d="M122.12,459.64,118,456.58s36.53-94.68,98.13-175.48c24.6-32.26,56-68.65,84.05-93.93,53.74-48.41,73.76-56.78,104.67-76.38-13,8.88-57.91,34.67-105.75,81.05-10.46,10.13-51,52.23-79.26,89C167.91,348.18,125.21,454.15,122.12,459.64Z"></path><path class="cls-20" d="M174.72,476l-10.8-3.2s38.75-113,99.92-202.56c51.88-76,138.23-157.75,141-159.44-2.57,3.9-64.52,57.6-113.22,124.3C236,311.21,197.58,402.2,174.72,476Z"></path><path class="cls-21" d="M276.66,484.91l-6.31,1.83S232.68,328.67,409.53,113.85c1.18-1.44-64.48,84-100.44,173.82C261.33,407,276.66,484.91,276.66,484.91Z"></path><path class="cls-22" d="M187.85,488.06l-4.55-1.32S207,392.88,271.05,288.41c74.74-121.86,141.76-177.88,138.75-175.1C255.77,255.17,187.85,488.06,187.85,488.06Z"></path><path class="cls-2" d="M250,499.5A249.5,249.5,0,0,1,73.58,73.58,249.5,249.5,0,1,1,426.42,426.42,247.84,247.84,0,0,1,250,499.5Zm0-484A234.5,234.5,0,0,0,84.18,415.82,234.5,234.5,0,1,0,415.82,84.18,232.94,232.94,0,0,0,250,15.49Z"></path><path d="M250,1A248.93,248.93,0,0,1,426.07,426.07a249,249,0,1,1-273-405.5A247.32,247.32,0,0,1,250,1m0,484A235.07,235.07,0,0,0,341.48,33.46a235.07,235.07,0,0,0-183,433.08A233.47,233.47,0,0,0,250,485M250,0C111.93,0,0,111.93,0,250S111.93,500,250,500,500,388.07,500,250,388.07,0,250,0Zm0,484C120.76,484,16,379.24,16,250S120.76,16,250,16,484,120.76,484,250,379.24,484,250,484Z"></path></g></g></g></svg> 