<svg id="Layer_1" data-name="Layer 1" xmlns="http://www.w3.org/2000/svg" viewBox="0 0 323.42 155.73"><defs><style>.cls-1{fill:#8ab544;}.cls-2{fill:#fff;}.cls-3{fill:#469c4b;}.cls-4{fill:#7cb03f;}</style></defs><title>wills-logo</title><path class="cls-1" d="M8.21,145.73H10l-3.85,4.92v5.51H4.64v-5.51L.79,145.73h1.8l2.79,3.6Z" transform="translate(-0.79 -0.55)"/><path class="cls-1" d="M17.05,145.58a5.64,5.64,0,0,1,4,1.53,5.09,5.09,0,0,1,1.6,3.84,5,5,0,0,1-1.62,3.82A5.74,5.74,0,0,1,17,156.28,5.44,5.44,0,0,1,13,154.77,5.07,5.07,0,0,1,11.47,151a5.19,5.19,0,0,1,1.58-3.87A5.53,5.53,0,0,1,17.05,145.58Zm.06,1.42a4.08,4.08,0,0,0-2.94,1.12A3.81,3.81,0,0,0,13,151a3.75,3.75,0,0,0,1.15,2.81,4,4,0,0,0,2.9,1.12A4,4,0,0,0,20,153.77a3.83,3.83,0,0,0,1.17-2.85A3.75,3.75,0,0,0,20,148.13,4,4,0,0,0,17.11,147Z" transform="translate(-0.79 -0.55)"/><path class="cls-1" d="M33.76,145.73h1.5v5.92a7,7,0,0,1-.17,1.82,4.06,4.06,0,0,1-.43,1,3.37,3.37,0,0,1-.64.72,4.72,4.72,0,0,1-3.23,1.07,4.82,4.82,0,0,1-3.27-1.06,3.69,3.69,0,0,1-.64-.73,3.86,3.86,0,0,1-.42-1,7.42,7.42,0,0,1-.17-1.85v-5.91h1.5v5.92a4.32,4.32,0,0,0,.34,2,2.36,2.36,0,0,0,1,.92,3.58,3.58,0,0,0,1.62.35,3.21,3.21,0,0,0,2.16-.7,2.11,2.11,0,0,0,.64-.88,5.45,5.45,0,0,0,.19-1.74Z" transform="translate(-0.79 -0.55)"/><path class="cls-1" d="M39.36,156.16V145.73H42a3.79,3.79,0,0,1,2.51.79,2.63,2.63,0,0,1,.93,2.12,2.64,2.64,0,0,1-1.76,2.57,4.17,4.17,0,0,1,1,.89,18.35,18.35,0,0,1,1.35,2c.36.59.65,1,.87,1.34l.55.74H45.63l-.46-.69-.09-.12-.29-.41-.46-.76-.5-.82a7.59,7.59,0,0,0-.85-1,3.29,3.29,0,0,0-.69-.55,2.39,2.39,0,0,0-1-.17h-.39v4.54ZM41.3,147h-.44v3.29h.56A4.23,4.23,0,0,0,43,150.1a1.45,1.45,0,0,0,.66-.59,1.73,1.73,0,0,0,.23-.89,1.55,1.55,0,0,0-.26-.89,1.37,1.37,0,0,0-.73-.56A5.29,5.29,0,0,0,41.3,147Z" transform="translate(-0.79 -0.55)"/><path class="cls-1" d="M56.78,145.73h1.49v9.07H63v1.36H56.78Z" transform="translate(-0.79 -0.55)"/><path class="cls-1" d="M71.37,145.58a5.6,5.6,0,0,1,4,1.53A5.1,5.1,0,0,1,77,151a5,5,0,0,1-1.63,3.82,5.74,5.74,0,0,1-4.09,1.51,5.44,5.44,0,0,1-3.93-1.51A5.07,5.07,0,0,1,65.79,151a5.16,5.16,0,0,1,1.59-3.87A5.49,5.49,0,0,1,71.37,145.58Zm.06,1.42a4.08,4.08,0,0,0-2.94,1.12A3.81,3.81,0,0,0,67.34,151a3.72,3.72,0,0,0,1.16,2.81,4.29,4.29,0,0,0,5.8,0,3.83,3.83,0,0,0,1.17-2.85,3.75,3.75,0,0,0-1.17-2.79A4,4,0,0,0,71.43,147Z" transform="translate(-0.79 -0.55)"/><path class="cls-1" d="M89.82,153.74v1.65a7.9,7.9,0,0,1-3.8.89,5.82,5.82,0,0,1-3-.7,5.31,5.31,0,0,1-2.63-4.6,5.1,5.1,0,0,1,1.62-3.83,5.59,5.59,0,0,1,4-1.55,9.47,9.47,0,0,1,3.66.86v1.6a7.28,7.28,0,0,0-3.58-1,4.13,4.13,0,0,0-3,1.13A3.78,3.78,0,0,0,82,151a3.69,3.69,0,0,0,1.17,2.82,4.13,4.13,0,0,0,3,1.11A6.76,6.76,0,0,0,89.82,153.74Z" transform="translate(-0.79 -0.55)"/><path class="cls-1" d="M97.35,145.67H98.4l4.68,10.49h-1.53l-1.39-3.09H95.71l-1.3,3.09H92.87Zm2.19,6.07L97.86,148l-1.56,3.77Z" transform="translate(-0.79 -0.55)"/><path class="cls-1" d="M106.21,145.73h1.49v9.07h4.69v1.36h-6.18Z" transform="translate(-0.79 -0.55)"/><path class="cls-1" d="M121.92,145.73h1.5v9.07h4.69v1.36h-6.19Z" transform="translate(-0.79 -0.55)"/><path class="cls-1" d="M134.73,145.67h1.05l4.68,10.49h-1.53l-1.39-3.09h-4.45l-1.3,3.09h-1.54Zm2.2,6.07L135.24,148l-1.56,3.77Z" transform="translate(-0.79 -0.55)"/><path class="cls-1" d="M155.65,145.73h1.49l-4.22,10.48h-.33l-3.41-8.48-3.44,8.48h-.32l-4.21-10.48h1.51l2.87,7.19,2.9-7.19h1.41l2.9,7.19Z" transform="translate(-0.79 -0.55)"/><path class="cls-1" d="M168.57,145.73H170v10.43H168.7l-7-8v8h-1.4V145.73h1.21l7,8.1Z" transform="translate(-0.79 -0.55)"/><path class="cls-1" d="M189.43,153.74v1.65a7.9,7.9,0,0,1-3.8.89,5.82,5.82,0,0,1-3-.7A5.31,5.31,0,0,1,180,151a5.1,5.1,0,0,1,1.62-3.83,5.59,5.59,0,0,1,4-1.55,9.38,9.38,0,0,1,3.65.86v1.6a7.21,7.21,0,0,0-3.57-1,4.11,4.11,0,0,0-3,1.13,3.78,3.78,0,0,0-1.18,2.83,3.69,3.69,0,0,0,1.17,2.82,4.11,4.11,0,0,0,3,1.11A6.76,6.76,0,0,0,189.43,153.74Z" transform="translate(-0.79 -0.55)"/><path class="cls-1" d="M197,145.67h1l4.68,10.49h-1.53l-1.39-3.09h-4.45l-1.3,3.09h-1.54Zm2.19,6.07L197.47,148l-1.56,3.77Z" transform="translate(-0.79 -0.55)"/><path class="cls-1" d="M205.86,156.16V145.73h2.61a3.75,3.75,0,0,1,2.51.79,2.63,2.63,0,0,1,.93,2.12,2.61,2.61,0,0,1-1.76,2.57,4.21,4.21,0,0,1,1,.89,17.22,17.22,0,0,1,1.34,2c.37.59.66,1,.88,1.34l.55.74h-1.78l-.45-.69-.09-.12-.29-.41-.46-.76-.5-.82a7.59,7.59,0,0,0-.85-1,3.31,3.31,0,0,0-.7-.55,2.33,2.33,0,0,0-1-.17h-.39v4.54ZM207.8,147h-.45v3.29h.57a4.23,4.23,0,0,0,1.56-.19,1.38,1.38,0,0,0,.65-.59,1.65,1.65,0,0,0,.24-.89,1.63,1.63,0,0,0-.26-.89,1.39,1.39,0,0,0-.74-.56A5.21,5.21,0,0,0,207.8,147Z" transform="translate(-0.79 -0.55)"/><path class="cls-1" d="M217,145.73H223v1.33h-4.42v3.18h4.27v1.34h-4.27v3.24h4.56v1.33H217Z" transform="translate(-0.79 -0.55)"/><path class="cls-1" d="M235.49,151.79l-1.14-.69a5.11,5.11,0,0,1-1.52-1.28,2.42,2.42,0,0,1-.45-1.45,2.56,2.56,0,0,1,.85-2,3.22,3.22,0,0,1,2.23-.77,4.18,4.18,0,0,1,2.39.73V148a3.43,3.43,0,0,0-2.42-1.09,2.08,2.08,0,0,0-1.21.34,1,1,0,0,0-.47.87,1.37,1.37,0,0,0,.35.88,4.4,4.4,0,0,0,1.11.85l1.14.68a3.33,3.33,0,0,1,1.91,2.9,2.65,2.65,0,0,1-.84,2,3.08,3.08,0,0,1-2.18.78,4.57,4.57,0,0,1-2.82-.95v-1.89a3.52,3.52,0,0,0,2.8,1.53,1.76,1.76,0,0,0,1.17-.39,1.24,1.24,0,0,0,.47-1C236.86,153,236.4,152.36,235.49,151.79Z" transform="translate(-0.79 -0.55)"/><path class="cls-1" d="M241.81,156.16V145.72h3.31a3.4,3.4,0,0,1,2.38.81,2.76,2.76,0,0,1,.89,2.16,2.92,2.92,0,0,1-.46,1.61,2.57,2.57,0,0,1-1.25,1,6.33,6.33,0,0,1-2.27.32h-1.1v4.52Zm3-9.11h-1.54v3.26h1.63a2.07,2.07,0,0,0,1.41-.43,1.53,1.53,0,0,0,.49-1.23C246.84,147.58,246.18,147.05,244.85,147.05Z" transform="translate(-0.79 -0.55)"/><path class="cls-1" d="M251.67,145.73h5.91v1.33h-4.42v3.18h4.27v1.34h-4.27v3.24h4.57v1.33h-6.06Z" transform="translate(-0.79 -0.55)"/><path class="cls-1" d="M270.29,153.74v1.65a7.86,7.86,0,0,1-3.79.89,5.79,5.79,0,0,1-3-.7,5.11,5.11,0,0,1-1.93-1.93,5.28,5.28,0,0,1-.71-2.67,5.1,5.1,0,0,1,1.62-3.83,5.61,5.61,0,0,1,4-1.55,9.46,9.46,0,0,1,3.65.86v1.6a7.25,7.25,0,0,0-3.58-1,4.11,4.11,0,0,0-3,1.13,3.74,3.74,0,0,0-1.18,2.83,3.68,3.68,0,0,0,1.16,2.82,4.15,4.15,0,0,0,3,1.11A6.72,6.72,0,0,0,270.29,153.74Z" transform="translate(-0.79 -0.55)"/><path class="cls-1" d="M274.13,145.73h1.49v10.43h-1.49Z" transform="translate(-0.79 -0.55)"/><path class="cls-1" d="M283.25,145.67h1.05L289,156.16h-1.53l-1.39-3.09h-4.45l-1.3,3.09h-1.54Zm2.2,6.07L283.76,148l-1.56,3.77Z" transform="translate(-0.79 -0.55)"/><path class="cls-1" d="M292.11,145.73h1.49v9.07h4.7v1.36h-6.19Z" transform="translate(-0.79 -0.55)"/><path class="cls-1" d="M301.6,145.73h1.5v10.43h-1.5Z" transform="translate(-0.79 -0.55)"/><path class="cls-1" d="M310,151.79l-1.13-.69a5.11,5.11,0,0,1-1.52-1.28,2.42,2.42,0,0,1-.45-1.45,2.56,2.56,0,0,1,.85-2,3.21,3.21,0,0,1,2.22-.77,4.21,4.21,0,0,1,2.4.73V148a3.43,3.43,0,0,0-2.43-1.09,2,2,0,0,0-1.2.34,1,1,0,0,0-.47.87,1.37,1.37,0,0,0,.35.88,4.4,4.4,0,0,0,1.11.85l1.14.68a3.35,3.35,0,0,1,1.91,2.9,2.65,2.65,0,0,1-.84,2,3.08,3.08,0,0,1-2.18.78,4.57,4.57,0,0,1-2.82-.95v-1.89a3.52,3.52,0,0,0,2.8,1.53,1.76,1.76,0,0,0,1.17-.39,1.24,1.24,0,0,0,.47-1C311.36,153,310.9,152.36,310,151.79Z" transform="translate(-0.79 -0.55)"/><path class="cls-1" d="M315.5,145.72h8.71v1.33h-3.63v9.11h-1.5v-9.11H315.5Z" transform="translate(-0.79 -0.55)"/><path class="cls-2" d="M25.14,113.71h2.52l-7.12,17.67H20l-5.76-14.3-5.81,14.3H7.88L.79,113.71H3.33l4.85,12.13,4.88-12.13h2.38l4.9,12.13Z" transform="translate(-0.79 -0.55)"/><path class="cls-2" d="M31.18,113.71H33.7v17.6H31.18Z" transform="translate(-0.79 -0.55)"/><path class="cls-2" d="M39.15,113.71h2.52V129h7.92v2.29H39.15Z" transform="translate(-0.79 -0.55)"/><path class="cls-2" d="M53.35,113.71h2.52V129h7.92v2.29H53.35Z" transform="translate(-0.79 -0.55)"/><path class="cls-2" d="M77,123.94l-1.92-1.17a8.66,8.66,0,0,1-2.56-2.16,4.1,4.1,0,0,1-.76-2.45,4.34,4.34,0,0,1,1.44-3.38A5.41,5.41,0,0,1,77,113.49a7.12,7.12,0,0,1,4,1.23v2.86a5.83,5.83,0,0,0-4.09-1.83,3.39,3.39,0,0,0-2,.57,1.74,1.74,0,0,0-.8,1.47,2.27,2.27,0,0,0,.59,1.48,7.52,7.52,0,0,0,1.88,1.45l1.92,1.13q3.23,1.94,3.22,4.9a4.5,4.5,0,0,1-1.41,3.44,5.21,5.21,0,0,1-3.69,1.32,7.73,7.73,0,0,1-4.75-1.6v-3.2a5.94,5.94,0,0,0,4.73,2.58,3,3,0,0,0,2-.66,2,2,0,0,0,.78-1.65C79.35,125.91,78.58,124.9,77,123.94Z" transform="translate(-0.79 -0.55)"/><path class="cls-2" d="M108.74,113.71h2.39v17.6H109L97.2,117.76v13.55H94.83v-17.6h2l11.87,13.67Z" transform="translate(-0.79 -0.55)"/><path class="cls-2" d="M125.08,113.46a9.46,9.46,0,0,1,6.79,2.58,8.56,8.56,0,0,1,2.71,6.48,8.44,8.44,0,0,1-2.73,6.44,9.75,9.75,0,0,1-6.91,2.55,9.19,9.19,0,0,1-6.63-2.55,8.52,8.52,0,0,1-2.65-6.39,8.7,8.7,0,0,1,2.67-6.53A9.32,9.32,0,0,1,125.08,113.46Zm.1,2.39a6.81,6.81,0,0,0-5,1.89,6.43,6.43,0,0,0-2,4.83,6.3,6.3,0,0,0,2,4.73,7.25,7.25,0,0,0,9.8,0,6.47,6.47,0,0,0,2-4.8,6.3,6.3,0,0,0-2-4.71A6.7,6.7,0,0,0,125.18,115.85Z" transform="translate(-0.79 -0.55)"/><path class="cls-2" d="M139.31,131.31v-17.6h4.4A6.32,6.32,0,0,1,148,115a4.41,4.41,0,0,1,1.57,3.57,4.6,4.6,0,0,1-.77,2.66,4.54,4.54,0,0,1-2.2,1.68,7.86,7.86,0,0,1,1.65,1.51,31.48,31.48,0,0,1,2.27,3.33c.61,1,1.1,1.76,1.47,2.26l.93,1.26h-3l-.76-1.16-.16-.21-.49-.7-.78-1.28-.84-1.38a13.37,13.37,0,0,0-1.43-1.72,5.36,5.36,0,0,0-1.17-.93,4.12,4.12,0,0,0-1.76-.28h-.66v7.66Zm3.27-15.46h-.76v5.56h1a7.09,7.09,0,0,0,2.63-.33,2.54,2.54,0,0,0,1.11-1,2.89,2.89,0,0,0,.39-1.5,2.65,2.65,0,0,0-.44-1.51,2.37,2.37,0,0,0-1.24-1A9.08,9.08,0,0,0,142.58,115.85Z" transform="translate(-0.79 -0.55)"/><path class="cls-2" d="M156.38,113.71h9.39V116H158.9v4.92h6.87v2.24H158.9v8.2h-2.52Z" transform="translate(-0.79 -0.55)"/><path class="cls-2" d="M178.65,113.46a9.48,9.48,0,0,1,6.79,2.58,8.6,8.6,0,0,1,2.71,6.48,8.41,8.41,0,0,1-2.74,6.44,9.73,9.73,0,0,1-6.9,2.55,9.19,9.19,0,0,1-6.63-2.55,8.49,8.49,0,0,1-2.65-6.39A8.7,8.7,0,0,1,171.9,116,9.32,9.32,0,0,1,178.65,113.46Zm.1,2.39a6.84,6.84,0,0,0-5,1.89,6.46,6.46,0,0,0-1.94,4.83,6.3,6.3,0,0,0,1.95,4.73,7.25,7.25,0,0,0,9.8,0,6.46,6.46,0,0,0,2-4.8,6.29,6.29,0,0,0-2-4.71A6.72,6.72,0,0,0,178.75,115.85Z" transform="translate(-0.79 -0.55)"/><path class="cls-2" d="M192.8,113.71h2.51V129h7.93v2.29H192.8Z" transform="translate(-0.79 -0.55)"/><path class="cls-2" d="M216.94,113.71h3.15l-7.63,8.35,9.51,9.25h-3.44l-9-8.69v8.69H207v-17.6h2.51v8.05Z" transform="translate(-0.79 -0.55)"/><path class="cls-2" d="M234.17,113.71h2.52V129h7.92v2.29H234.17Z" transform="translate(-0.79 -0.55)"/><path class="cls-2" d="M254,113.61h1.77l7.89,17.7h-2.58l-2.34-5.22h-7.51l-2.2,5.22h-2.59Zm3.7,10.24-2.84-6.37-2.63,6.37Z" transform="translate(-0.79 -0.55)"/><path class="cls-2" d="M287.47,113.71H290l-7.12,17.67h-.55l-5.75-14.3-5.82,14.3h-.54l-7.09-17.67h2.54l4.85,12.13,4.88-12.13h2.38l4.91,12.13Z" transform="translate(-0.79 -0.55)"/><path class="cls-2" d="M307.46,113.71h2.39v17.6h-2.16l-11.77-13.55v13.55h-2.37v-17.6h2l11.87,13.67Z" transform="translate(-0.79 -0.55)"/><path class="cls-2" d="M319.53,123.94l-1.92-1.17a8.66,8.66,0,0,1-2.56-2.16,4.1,4.1,0,0,1-.76-2.45,4.34,4.34,0,0,1,1.44-3.38,5.41,5.41,0,0,1,3.75-1.29,7.14,7.14,0,0,1,4,1.23v2.86a5.83,5.83,0,0,0-4.1-1.83,3.37,3.37,0,0,0-2,.57,1.74,1.74,0,0,0-.8,1.47,2.27,2.27,0,0,0,.59,1.48,7.33,7.33,0,0,0,1.88,1.45l1.92,1.13q3.22,1.94,3.22,4.9a4.47,4.47,0,0,1-1.42,3.44,5.17,5.17,0,0,1-3.68,1.32,7.73,7.73,0,0,1-4.75-1.6v-3.2a5.94,5.94,0,0,0,4.72,2.58,3,3,0,0,0,2-.66,2,2,0,0,0,.78-1.65C321.84,125.91,321.07,124.9,319.53,123.94Z" transform="translate(-0.79 -0.55)"/><path class="cls-2" d="M68.55,109.65s1,6.42-5.07,5.6l1.58-2.11L63,114.72C62.13,108.63,68.55,109.65,68.55,109.65Z" transform="translate(-0.79 -0.55)"/><path class="cls-3" d="M162.5,19.32s-27.71,26.32-2,52.05l2-18,2,18C190.21,45.64,162.5,19.32,162.5,19.32Z" transform="translate(-0.79 -0.55)"/><path class="cls-1" d="M129.85,48.84s-.6,23.1,21.41,23.1l-6.85-8.54L153,70.25C153,48.24,129.85,48.84,129.85,48.84Z" transform="translate(-0.79 -0.55)"/><path class="cls-1" d="M195.15,48.84s.6,23.1-21.41,23.1l6.85-8.54-8.54,6.85C172.05,48.24,195.15,48.84,195.15,48.84Z" transform="translate(-0.79 -0.55)"/><path class="cls-4" d="M162.5,96.14a47.61,47.61,0,1,1,18.6-3.75A47.6,47.6,0,0,1,162.5,96.14ZM162.5,6a42.37,42.37,0,0,0-30,72.32,42.37,42.37,0,0,0,59.92-59.91A42.11,42.11,0,0,0,162.5,6Z" transform="translate(-0.79 -0.55)"/><path class="cls-2" d="M25.14,113.71h2.52l-7.12,17.67H20l-5.76-14.3-5.81,14.3H7.88L.79,113.71H3.33l4.85,12.13,4.88-12.13h2.38l4.9,12.13Z" transform="translate(-0.79 -0.55)"/><path class="cls-2" d="M31.18,113.71H33.7v17.6H31.18Z" transform="translate(-0.79 -0.55)"/><path class="cls-2" d="M39.15,113.71h2.52V129h7.92v2.29H39.15Z" transform="translate(-0.79 -0.55)"/><path class="cls-2" d="M53.35,113.71h2.52V129h7.92v2.29H53.35Z" transform="translate(-0.79 -0.55)"/><path class="cls-2" d="M77,123.94l-1.92-1.17a8.66,8.66,0,0,1-2.56-2.16,4.1,4.1,0,0,1-.76-2.45,4.34,4.34,0,0,1,1.44-3.38A5.41,5.41,0,0,1,77,113.49a7.12,7.12,0,0,1,4,1.23v2.86a5.83,5.83,0,0,0-4.09-1.83,3.39,3.39,0,0,0-2,.57,1.74,1.74,0,0,0-.8,1.47,2.27,2.27,0,0,0,.59,1.48,7.52,7.52,0,0,0,1.88,1.45l1.92,1.13q3.23,1.94,3.22,4.9a4.5,4.5,0,0,1-1.41,3.44,5.21,5.21,0,0,1-3.69,1.32,7.73,7.73,0,0,1-4.75-1.6v-3.2a5.94,5.94,0,0,0,4.73,2.58,3,3,0,0,0,2-.66,2,2,0,0,0,.78-1.65C79.35,125.91,78.58,124.9,77,123.94Z" transform="translate(-0.79 -0.55)"/><path class="cls-2" d="M108.74,113.71h2.39v17.6H109L97.2,117.76v13.55H94.83v-17.6h2l11.87,13.67Z" transform="translate(-0.79 -0.55)"/><path class="cls-2" d="M125.08,113.46a9.46,9.46,0,0,1,6.79,2.58,8.56,8.56,0,0,1,2.71,6.48,8.44,8.44,0,0,1-2.73,6.44,9.75,9.75,0,0,1-6.91,2.55,9.19,9.19,0,0,1-6.63-2.55,8.52,8.52,0,0,1-2.65-6.39,8.7,8.7,0,0,1,2.67-6.53A9.32,9.32,0,0,1,125.08,113.46Zm.1,2.39a6.81,6.81,0,0,0-5,1.89,6.43,6.43,0,0,0-2,4.83,6.3,6.3,0,0,0,2,4.73,7.25,7.25,0,0,0,9.8,0,6.47,6.47,0,0,0,2-4.8,6.3,6.3,0,0,0-2-4.71A6.7,6.7,0,0,0,125.18,115.85Z" transform="translate(-0.79 -0.55)"/><path class="cls-2" d="M139.31,131.31v-17.6h4.4A6.32,6.32,0,0,1,148,115a4.41,4.41,0,0,1,1.57,3.57,4.6,4.6,0,0,1-.77,2.66,4.54,4.54,0,0,1-2.2,1.68,7.86,7.86,0,0,1,1.65,1.51,31.48,31.48,0,0,1,2.27,3.33c.61,1,1.1,1.76,1.47,2.26l.93,1.26h-3l-.76-1.16-.16-.21-.49-.7-.78-1.28-.84-1.38a13.37,13.37,0,0,0-1.43-1.72,5.36,5.36,0,0,0-1.17-.93,4.12,4.12,0,0,0-1.76-.28h-.66v7.66Zm3.27-15.46h-.76v5.56h1a7.09,7.09,0,0,0,2.63-.33,2.54,2.54,0,0,0,1.11-1,2.89,2.89,0,0,0,.39-1.5,2.65,2.65,0,0,0-.44-1.51,2.37,2.37,0,0,0-1.24-1A9.08,9.08,0,0,0,142.58,115.85Z" transform="translate(-0.79 -0.55)"/><path class="cls-2" d="M156.38,113.71h9.39V116H158.9v4.92h6.87v2.24H158.9v8.2h-2.52Z" transform="translate(-0.79 -0.55)"/><path class="cls-2" d="M178.65,113.46a9.48,9.48,0,0,1,6.79,2.58,8.6,8.6,0,0,1,2.71,6.48,8.41,8.41,0,0,1-2.74,6.44,9.73,9.73,0,0,1-6.9,2.55,9.19,9.19,0,0,1-6.63-2.55,8.49,8.49,0,0,1-2.65-6.39A8.7,8.7,0,0,1,171.9,116,9.32,9.32,0,0,1,178.65,113.46Zm.1,2.39a6.84,6.84,0,0,0-5,1.89,6.46,6.46,0,0,0-1.94,4.83,6.3,6.3,0,0,0,1.95,4.73,7.25,7.25,0,0,0,9.8,0,6.46,6.46,0,0,0,2-4.8,6.29,6.29,0,0,0-2-4.71A6.72,6.72,0,0,0,178.75,115.85Z" transform="translate(-0.79 -0.55)"/><path class="cls-2" d="M192.8,113.71h2.51V129h7.93v2.29H192.8Z" transform="translate(-0.79 -0.55)"/><path class="cls-2" d="M216.94,113.71h3.15l-7.63,8.35,9.51,9.25h-3.44l-9-8.69v8.69H207v-17.6h2.51v8.05Z" transform="translate(-0.79 -0.55)"/><path class="cls-2" d="M234.17,113.71h2.52V129h7.92v2.29H234.17Z" transform="translate(-0.79 -0.55)"/><path class="cls-2" d="M254,113.61h1.77l7.89,17.7h-2.58l-2.34-5.22h-7.51l-2.2,5.22h-2.59Zm3.7,10.24-2.84-6.37-2.63,6.37Z" transform="translate(-0.79 -0.55)"/><path class="cls-2" d="M287.47,113.71H290l-7.12,17.67h-.55l-5.75-14.3-5.82,14.3h-.54l-7.09-17.67h2.54l4.85,12.13,4.88-12.13h2.38l4.91,12.13Z" transform="translate(-0.79 -0.55)"/><path class="cls-2" d="M307.46,113.71h2.39v17.6h-2.16l-11.77-13.55v13.55h-2.37v-17.6h2l11.87,13.67Z" transform="translate(-0.79 -0.55)"/><path class="cls-2" d="M319.53,123.94l-1.92-1.17a8.66,8.66,0,0,1-2.56-2.16,4.1,4.1,0,0,1-.76-2.45,4.34,4.34,0,0,1,1.44-3.38,5.41,5.41,0,0,1,3.75-1.29,7.14,7.14,0,0,1,4,1.23v2.86a5.83,5.83,0,0,0-4.1-1.83,3.37,3.37,0,0,0-2,.57,1.74,1.74,0,0,0-.8,1.47,2.27,2.27,0,0,0,.59,1.48,7.33,7.33,0,0,0,1.88,1.45l1.92,1.13q3.22,1.94,3.22,4.9a4.47,4.47,0,0,1-1.42,3.44,5.17,5.17,0,0,1-3.68,1.32,7.73,7.73,0,0,1-4.75-1.6v-3.2a5.94,5.94,0,0,0,4.72,2.58,3,3,0,0,0,2-.66,2,2,0,0,0,.78-1.65C321.84,125.91,321.07,124.9,319.53,123.94Z" transform="translate(-0.79 -0.55)"/><path class="cls-1" d="M68.55,109.65s1,6.42-5.07,5.6l1.58-2.11L63,114.72C62.13,108.63,68.55,109.65,68.55,109.65Z" transform="translate(-0.79 -0.55)"/><path class="cls-3" d="M162.5,19.32s-27.71,26.32-2,52.05l2-18,2,18C190.21,45.64,162.5,19.32,162.5,19.32Z" transform="translate(-0.79 -0.55)"/><path class="cls-1" d="M129.85,48.84s-.6,23.1,21.41,23.1l-6.85-8.54L153,70.25C153,48.24,129.85,48.84,129.85,48.84Z" transform="translate(-0.79 -0.55)"/><path class="cls-1" d="M195.15,48.84s.6,23.1-21.41,23.1l6.85-8.54-8.54,6.85C172.05,48.24,195.15,48.84,195.15,48.84Z" transform="translate(-0.79 -0.55)"/><path class="cls-4" d="M162.5,96.14a47.61,47.61,0,1,1,18.6-3.75A47.6,47.6,0,0,1,162.5,96.14ZM162.5,6a42.37,42.37,0,0,0-30,72.32,42.37,42.37,0,0,0,59.92-59.91A42.11,42.11,0,0,0,162.5,6Z" transform="translate(-0.79 -0.55)"/></svg>