<?xml version="1.0" encoding="UTF-8"?>
<svg width="24px" height="24px" viewBox="0 0 24 24" version="1.1" xmlns="http://www.w3.org/2000/svg" xmlns:xlink="http://www.w3.org/1999/xlink">
    <!-- Generator: Sketch 63.1 (92452) - https://sketch.com -->
    <title>GappsppsIcon</title>
    <desc>Created with Sketch.</desc>
    <g id="GappsppsIcon" stroke="none" stroke-width="1" fill="none" fill-rule="evenodd">
        <path d="M-2.20978791e-13,-1.84627424e-12 L24.048,12 L-2.20978791e-13,24 L-2.20978791e-13,-1.84627424e-12 Z M16.1419055,12.3897791 C15.7027685,12.1115219 15.216125,12.0309313 14.681975,12.1480072 C14.088475,12.2780915 13.791725,12.5785024 13.791725,13.0492399 C13.808425,13.2584274 13.8514375,13.4201149 13.9207625,13.5343024 C14.0706645,13.781211 14.2957625,13.8992899 14.5436375,14.0153337 C14.7915125,14.1313774 15.178265,14.1980715 15.4461688,14.3578024 C15.5480773,14.4185628 15.6017898,14.5271441 15.6073063,14.6835462 C15.5910938,14.8830212 15.4492438,15.0084524 15.1817563,15.0598399 C14.9142688,15.1112274 14.6550688,15.0442837 14.4041563,14.8590087 L14.4041563,14.8590087 L14.330525,14.3872212 L13.740125,14.3872212 L13.740125,15.2201524 L13.855414,15.3057654 C14.0061505,15.4117283 14.1449583,15.4849407 14.2718375,15.5254024 C14.4304365,15.5759796 14.675824,15.6090058 15.008,15.624481 C15.436525,15.6242661 15.7632688,15.5458712 15.9882313,15.3892962 C16.2131938,15.2327212 16.3416625,14.9974712 16.3736375,14.6835462 C16.3736375,14.4079837 16.2952375,14.1991905 16.1384375,14.0571667 C15.9081539,13.8485841 15.665,13.7532087 15.2861375,13.6085712 C14.907275,13.4639337 14.8392181,13.4267169 14.681975,13.3240024 C14.6070585,13.2750654 14.560946,13.1834779 14.5436375,13.0492399 C14.56185,12.8438024 14.6868625,12.7253649 14.918675,12.6939274 C15.1504875,12.6624899 15.38855,12.6998899 15.6328625,12.8061274 L15.6328625,12.8061274 L15.7282625,13.2661387 L16.286525,13.2661387 L16.286525,12.4898524 Z M6.08313125,12.1650274 L5.27853125,12.1650274 L4.22515625,15.0928962 L4.0115553,15.1279037 L4.0115553,15.5629734 L5.2064,15.5629734 L5.2064,15.1279037 L4.97616875,15.0928962 L5.10291875,14.6679462 L6.24845,14.6679462 L6.3756125,15.0928962 L6.152675,15.1279037 L6.152675,15.5629734 L7.36235,15.5629734 L7.36235,15.1279037 L7.128425,15.0928962 L6.08313125,12.1650274 Z M12.4370563,12.1650274 C12.1612374,12.1423337 11.5688999,12.1423337 10.6600438,12.1650274 L10.6600438,12.1650274 L10.6600438,12.6034587 L11.024675,12.6760774 L11.024675,15.0439774 L10.6600438,15.1210774 L10.6600438,15.5629734 L12.133175,15.5629734 L12.133175,15.1210774 L11.7827188,15.0439774 L11.7827188,14.3780337 L11.9693836,14.3869867 C13.0591029,14.4162492 13.6039625,14.0053148 13.6039625,13.1541837 C13.6039625,12.8251962 13.3698942,12.241779 12.4370563,12.1650274 Z M9.36505625,12.1650274 C9.08923742,12.1423337 8.49689992,12.1423337 7.58804375,12.1650274 L7.58804375,12.1650274 L7.58804375,12.6034587 L7.952675,12.6760774 L7.952675,15.0439774 L7.58804375,15.1210774 L7.58804375,15.5629734 L9.061175,15.5629734 L9.061175,15.1210774 L8.71071875,15.0439774 L8.71071875,14.3780337 L8.89738362,14.3869867 C9.98710287,14.4162492 10.5319625,14.0053148 10.5319625,13.1541837 C10.5319625,12.8251962 10.2978942,12.241779 9.36505625,12.1650274 Z M5.676275,12.9172212 L6.08065625,14.1166212 L5.27189375,14.1166212 L5.676275,12.9172212 Z M11.779925,12.7405399 C12.159225,12.7094649 12.4338188,12.7293524 12.6037063,12.8002024 C12.7735938,12.8710524 12.8585375,13.0408337 12.8585375,13.3095462 C12.8585375,13.5286837 12.7735938,13.6709462 12.6037063,13.7363337 C12.4338188,13.8017212 12.159225,13.8210462 11.779925,13.7943087 L11.779925,13.7943087 Z M8.707925,12.7405399 C9.087225,12.7094649 9.36181875,12.7293524 9.53170625,12.8002024 C9.70159375,12.8710524 9.7865375,13.0408337 9.7865375,13.3095462 C9.7865375,13.5286837 9.70159375,13.6709462 9.53170625,13.7363337 C9.36181875,13.8017212 9.087225,13.8210462 8.707925,13.7943087 L8.707925,13.7943087 Z M2.46172717,8.46902743 C1.97265021,8.46902743 1.60500913,8.58831688 1.35880391,8.82689576 C0.928023096,9.22422912 0.74630833,9.73294103 0.813659617,10.3530315 C0.881010903,10.9731219 1.06272567,11.3954482 1.35880391,11.6200102 C1.69106143,11.8673212 2.05870252,11.9909767 2.46172717,11.9909767 C2.86475182,11.9909767 3.2996477,11.8673212 3.7664148,11.6200102 L3.7664148,11.6200102 L3.7664148,10.2172817 L2.58543956,10.2172817 L2.58543956,10.7534381 L3.0173597,10.7864639 L3.0173597,11.2831672 C2.76154434,11.3924725 2.5187247,11.4295065 2.2889008,11.3942693 C2.0590769,11.3590321 1.88326962,11.255166 1.76147896,11.0826712 C1.65331192,10.8641419 1.58581322,10.6348479 1.55898285,10.3947893 C1.53215248,10.1547307 1.56890196,9.87941045 1.66923127,9.56882861 C1.77126797,9.30221606 1.95816181,9.13623364 2.22991279,9.07088137 C2.50166377,9.0055291 2.76414607,9.05302698 3.0173597,9.21337502 L3.0173597,9.21337502 L3.13902323,9.6541004 L3.67148408,9.6541004 L3.67148408,8.88450788 C3.35405643,8.60752091 2.95080413,8.46902743 2.46172717,8.46902743 Z M16.1419055,8.69377906 C15.7027685,8.41552189 15.216125,8.33493126 14.681975,8.45200717 C14.088475,8.58209151 13.791725,8.88250243 13.791725,9.35323993 C13.808425,9.56242743 13.8514375,9.72411493 13.9207625,9.83830243 C14.0706645,10.085211 14.2957625,10.2032899 14.5436375,10.3193337 C14.7915125,10.4353774 15.178265,10.5020715 15.4461688,10.6618024 C15.5480773,10.7225628 15.6017898,10.8311441 15.6073063,10.9875462 C15.5910938,11.1870212 15.4492438,11.3124524 15.1817563,11.3638399 C14.9142688,11.4152274 14.6550688,11.3482837 14.4041563,11.1630087 L14.4041563,11.1630087 L14.330525,10.6912212 L13.740125,10.6912212 L13.740125,11.5241524 L13.855414,11.6097654 C14.0061505,11.7157283 14.1449583,11.7889407 14.2718375,11.8294024 C14.4304365,11.8799796 14.675824,11.9130058 15.008,11.928481 C15.436525,11.9282661 15.7632688,11.8498712 15.9882313,11.6932962 C16.2131938,11.5367212 16.3416625,11.3014712 16.3736375,10.9875462 C16.3736375,10.7119837 16.2952375,10.5031905 16.1384375,10.3611667 C15.9081539,10.1525841 15.665,10.0572087 15.2861375,9.91257118 C14.907275,9.76793368 14.8392181,9.73071688 14.681975,9.62800243 C14.6070585,9.57906545 14.560946,9.48747795 14.5436375,9.35323993 C14.56185,9.14780243 14.6868625,9.02936493 14.918675,8.99792743 C15.1504875,8.96648993 15.38855,9.00388993 15.6328625,9.11012743 L15.6328625,9.11012743 L15.7282625,9.57013871 L16.286525,9.57013871 L16.286525,8.79385243 Z M6.08313125,8.46902743 L5.27853125,8.46902743 L4.22515625,11.3968962 L4.0115553,11.4319037 L4.0115553,11.8669734 L5.2064,11.8669734 L5.2064,11.4319037 L4.97616875,11.3968962 L5.10291875,10.9719462 L6.24845,10.9719462 L6.3756125,11.3968962 L6.152675,11.4319037 L6.152675,11.8669734 L7.36235,11.8669734 L7.36235,11.4319037 L7.128425,11.3968962 L6.08313125,8.46902743 Z M12.4370563,8.46902743 C12.1612374,8.44633374 11.5688999,8.44633374 10.6600438,8.46902743 L10.6600438,8.46902743 L10.6600438,8.90745868 L11.024675,8.98007743 L11.024675,11.3479774 L10.6600438,11.4250774 L10.6600438,11.8669734 L12.133175,11.8669734 L12.133175,11.4250774 L11.7827188,11.3479774 L11.7827188,10.6820337 L11.9693836,10.6909867 C13.0591029,10.7202492 13.6039625,10.3093148 13.6039625,9.45818368 C13.6039625,9.12919618 13.3698942,8.54577903 12.4370563,8.46902743 Z M9.36505625,8.46902743 C9.08923742,8.44633374 8.49689992,8.44633374 7.58804375,8.46902743 L7.58804375,8.46902743 L7.58804375,8.90745868 L7.952675,8.98007743 L7.952675,11.3479774 L7.58804375,11.4250774 L7.58804375,11.8669734 L9.061175,11.8669734 L9.061175,11.4250774 L8.71071875,11.3479774 L8.71071875,10.6820337 L8.89738362,10.6909867 C9.98710287,10.7202492 10.5319625,10.3093148 10.5319625,9.45818368 C10.5319625,9.12919618 10.2978942,8.54577903 9.36505625,8.46902743 Z M5.676275,9.22122118 L6.08065625,10.4206212 L5.27189375,10.4206212 L5.676275,9.22122118 Z M11.779925,9.04453993 C12.159225,9.01346493 12.4338188,9.03335243 12.6037063,9.10420243 C12.7735938,9.17505243 12.8585375,9.34483368 12.8585375,9.61354618 C12.8585375,9.83268368 12.7735938,9.97494618 12.6037063,10.0403337 C12.4338188,10.1057212 12.159225,10.1250462 11.779925,10.0983087 L11.779925,10.0983087 Z M8.707925,9.04453993 C9.087225,9.01346493 9.36181875,9.03335243 9.53170625,9.10420243 C9.70159375,9.17505243 9.7865375,9.34483368 9.7865375,9.61354618 C9.7865375,9.83268368 9.70159375,9.97494618 9.53170625,10.0403337 C9.36181875,10.1057212 9.087225,10.1250462 8.707925,10.0983087 L8.707925,10.0983087 Z" id="Combined-Shape" fill="#FFD700"></path>
    </g>
</svg>