<?xml version="1.0" encoding="UTF-8"?>
<svg width="512px" height="512px" viewBox="0 0 512 512" version="1.1" xmlns="http://www.w3.org/2000/svg" xmlns:xlink="http://www.w3.org/1999/xlink">
    <!-- Generator: Sketch 64 (93537) - https://sketch.com -->
    <title>lawns matter logo colour</title>
    <desc>Created with Sketch.</desc>
    <defs>
        <polygon id="path-1" points="0 468 512 468 512 44 0 44"></polygon>
    </defs>
    <g id="lawns-matter-logo-colour" stroke="none" stroke-width="1" fill="none" fill-rule="evenodd">
        <path d="M28.2916695,384.043118 L34.7066862,384.043118 C38.396278,384.077812 40.0861806,382.539741 40.0861806,379.754364 C40.0861806,376.97229 38.396278,375.467261 34.7066862,375.467261 L28.2916695,375.467261 L28.2916695,384.043118 Z M25.0162866,372.850394 L35.810083,372.850394 C40.7057536,372.850394 43.3615635,375.43422 43.3615635,379.754364 C43.3615635,384.077812 40.7057536,386.693027 35.810083,386.664942 L28.2916695,386.664942 L28.2916695,396.220472 L25.0162866,396.220472 L25.0162866,372.850394 Z" id="Fill-1" fill="#8A8B8A"></path>
        <path d="M57.6648014,383.619429 C60.4887535,383.619429 62.9026479,382.866142 62.9026479,379.459829 C62.9026479,377.170232 61.6948998,375.467076 58.8709477,375.467076 L51.3809875,375.467076 L51.3809875,383.619429 L57.6648014,383.619429 Z M48.3648208,372.850394 L59.0295247,372.850394 C63.2822716,372.850394 65.9156109,375.239107 65.9156109,378.972505 C65.9156109,381.787421 64.7110664,384.111709 61.9816198,384.894731 L61.9816198,384.960809 C64.6149591,385.486128 65.1547617,387.481679 65.3774102,389.77458 C65.5680229,392.064177 65.4398799,394.616433 66.7100977,396.220472 L63.3463431,396.220472 C62.4893866,395.272255 62.9651176,392.753038 62.5198206,390.461789 C62.2026666,388.17054 61.6644658,386.237763 58.7428047,386.237763 L51.3809875,386.237763 L51.3809875,396.220472 L48.3648208,396.220472 L48.3648208,372.850394 Z" id="Fill-3" fill="#8A8B8A"></path>
        <path d="M81.7207311,393.542871 C87.6590766,393.542871 90.1519069,388.520469 90.1519069,383.700787 C90.1519069,378.879416 87.6590766,373.860393 81.7207311,373.860393 C75.7806628,373.860393 73.2878325,378.879416 73.2878325,383.700787 C73.2878325,388.520469 75.7806628,393.542871 81.7207311,393.542871 M81.7207311,371.181102 C89.4696949,371.181102 93.3941368,377.208661 93.3941368,383.700787 C93.3941368,390.194603 89.4696949,396.220472 81.7207311,396.220472 C73.9717673,396.220472 70.0456026,390.194603 70.0456026,383.700787 C70.0456026,377.208661 73.9717673,371.181102 81.7207311,371.181102" id="Fill-5" fill="#8A8B8A"></path>
        <polygon id="Fill-7" fill="#8A8B8A" points="96.7296417 372.850394 111.739414 372.850394 111.739414 375.467261 99.7693911 375.467261 99.7693911 382.898239 110.266379 382.898239 110.266379 385.520062 99.7693911 385.520062 99.7693911 396.220472 96.7296417 396.220472"></polygon>
        <polygon id="Fill-9" fill="#8A8B8A" points="116.742671 372.850394 133.320076 372.850394 133.320076 375.467261 119.936312 375.467261 119.936312 382.898239 132.410516 382.898239 132.410516 385.520062 119.936312 385.520062 119.936312 393.605257 133.420195 393.605257 133.420195 396.220472 116.742671 396.220472"></polygon>
        <path d="M151.266745,378.747648 C150.915099,375.333496 148.740701,373.858703 145.608147,373.858703 C143.051455,373.858703 140.494762,374.830073 140.494762,377.941834 C140.494762,380.889729 144.138654,381.32051 147.813194,382.193898 C151.458699,383.065596 155.100977,384.405241 155.100977,389.091465 C155.100977,394.176373 150.339238,396.220472 146.184008,396.220472 C141.070623,396.220472 136.7557,393.607066 136.7557,387.783918 L139.631778,387.783918 C139.631778,391.802853 142.828853,393.542871 146.279178,393.542871 C149.029437,393.542871 152.06682,392.637386 152.06682,389.191136 C152.06682,385.907063 148.421316,385.339445 144.779037,384.504912 C141.135145,383.665311 137.458992,382.563863 137.458992,378.178341 C137.458992,373.323183 141.581962,371.181102 145.737192,371.181102 C150.40376,371.181102 153.950869,373.492117 154.142822,378.747648 L151.266745,378.747648 Z" id="Fill-11" fill="#8A8B8A"></path>
        <path d="M174.615279,378.747648 C174.263633,375.333496 172.089235,373.858703 168.956682,373.858703 C166.399989,373.858703 163.843296,374.830073 163.843296,377.941834 C163.843296,380.889729 167.487188,381.32051 171.161728,382.193898 C174.807233,383.065596 178.449511,384.405241 178.449511,389.091465 C178.449511,394.176373 173.687772,396.220472 169.532542,396.220472 C164.417544,396.220472 160.104235,393.607066 160.104235,387.783918 L162.980312,387.783918 C162.980312,391.802853 166.177387,393.542871 169.627712,393.542871 C172.377972,393.542871 175.415355,392.637386 175.415355,389.191136 C175.415355,385.907063 171.76985,385.339445 168.127571,384.504912 C164.483679,383.665311 160.807527,382.563863 160.807527,378.178341 C160.807527,373.323183 164.930496,371.181102 169.085726,371.181102 C173.752295,371.181102 177.299403,373.492117 177.491357,378.747648 L174.615279,378.747648 Z" id="Fill-13" fill="#8A8B8A"></path>
        <mask id="mask-2" fill="white">
            <use xlink:href="#path-1"></use>
        </mask>
        <g id="Clip-16"></g>
        <polygon id="Fill-15" fill="#8A8B8A" mask="url(#mask-2)" points="183.452769 396.220472 186.788274 396.220472 186.788274 372.850394 183.452769 372.850394"></polygon>
        <path d="M201.796323,393.542871 C207.736829,393.542871 210.231566,388.520469 210.231566,383.700787 C210.231566,378.879416 207.736829,373.860393 201.796323,373.860393 C195.857539,373.860393 193.364525,378.879416 193.364525,383.700787 C193.364525,388.520469 195.857539,393.542871 201.796323,393.542871 M201.796323,371.181102 C209.545858,371.181102 213.472313,377.208661 213.472313,383.700787 C213.472313,390.194603 209.545858,396.220472 201.796323,396.220472 C194.04851,396.220472 190.123779,390.194603 190.123779,383.700787 C190.123779,377.208661 194.04851,371.181102 201.796323,371.181102" id="Fill-17" fill="#8A8B8A" mask="url(#mask-2)"></path>
        <polygon id="Fill-18" fill="#8A8B8A" mask="url(#mask-2)" points="218.47557 372.850394 221.732975 372.850394 233.854688 391.806161 233.919771 391.806161 233.919771 372.850394 236.820847 372.850394 236.820847 396.220472 233.469071 396.220472 221.441729 377.464605 221.376646 377.464605 221.376646 396.220472 218.47557 396.220472"></polygon>
        <path d="M246.957486,386.566501 L254.870963,386.566501 L250.979414,375.663658 L250.913399,375.663658 L246.957486,386.566501 Z M249.277893,372.850394 L252.712292,372.850394 L261.837134,396.220472 L258.402734,396.220472 L255.852928,389.183183 L245.975522,389.183183 L243.359701,396.220472 L240.156352,396.220472 L249.277893,372.850394 Z" id="Fill-19" fill="#8A8B8A" mask="url(#mask-2)"></path>
        <polygon id="Fill-20" fill="#8A8B8A" mask="url(#mask-2)" points="265.172638 372.850394 268.188366 372.850394 268.188366 393.605257 280.18241 393.605257 280.18241 396.220472 265.172638 396.220472"></polygon>
        <polygon id="Fill-21" fill="#8A8B8A" mask="url(#mask-2)" points="293.52443 372.850394 296.538878 372.850394 296.538878 393.605257 308.534202 393.605257 308.534202 396.220472 293.52443 396.220472"></polygon>
        <path d="M317.006389,386.566501 L324.914915,386.566501 L321.025016,375.663658 L320.960652,375.663658 L317.006389,386.566501 Z M319.323495,372.850394 L322.757895,372.850394 L331.882736,396.220472 L328.448337,396.220472 L325.89853,389.183183 L316.022775,389.183183 L313.403653,396.220472 L310.201954,396.220472 L319.323495,372.850394 Z" id="Fill-22" fill="#8A8B8A" mask="url(#mask-2)"></path>
        <polygon id="Fill-23" fill="#8A8B8A" mask="url(#mask-2)" points="355.541624 396.220472 352.246243 396.220472 346.822805 376.580751 346.7573 376.580751 341.266678 396.220472 337.971297 396.220472 331.882736 372.850394 335.107574 372.850394 339.766793 392.293519 339.830617 392.293519 345.156638 372.850394 348.586388 372.850394 353.846904 392.293519 353.912409 392.293519 358.736229 372.850394 361.90228 372.850394"></polygon>
        <polygon id="Fill-24" fill="#8A8B8A" mask="url(#mask-2)" points="366.905537 372.850394 370.165908 372.850394 382.283292 391.806161 382.349996 391.806161 382.349996 372.850394 385.250814 372.850394 385.250814 396.220472 381.896082 396.220472 369.874687 377.464605 369.806356 377.464605 369.806356 396.220472 366.905537 396.220472"></polygon>
        <path d="M416.812842,378.949844 C416.134729,375.568018 413.386316,373.860212 410.026574,373.860212 C404.262613,373.860212 401.815583,378.547809 401.815583,383.536088 C401.815583,388.990593 404.262613,393.543052 410.064247,393.543052 C414.304166,393.543052 416.746058,390.597045 417.052579,386.649328 L420.273616,386.649328 C419.667424,392.603843 415.900129,396.220472 409.791974,396.220472 C402.259097,396.220472 398.592834,390.732183 398.592834,383.767512 C398.592834,376.840003 402.594728,371.181102 410.064247,371.181102 C415.120984,371.181102 419.288982,373.860212 420.039016,378.949844 L416.812842,378.949844 Z" id="Fill-25" fill="#8A8B8A" mask="url(#mask-2)"></path>
        <path d="M428.745803,386.566501 L436.655979,386.566501 L432.766081,375.663658 L432.700066,375.663658 L428.745803,386.566501 Z M431.064559,372.850394 L434.498959,372.850394 L443.62215,396.220472 L440.189401,396.220472 L437.639594,389.183183 L427.762188,389.183183 L425.144717,396.220472 L421.941368,396.220472 L431.064559,372.850394 Z" id="Fill-26" fill="#8A8B8A" mask="url(#mask-2)"></path>
        <path d="M456.256845,383.619429 C459.08585,383.619429 461.496751,382.866142 461.496751,379.459829 C461.496751,377.170232 460.292102,375.467076 457.463097,375.467076 L449.970881,375.467076 L449.970881,383.619429 L456.256845,383.619429 Z M446.957655,372.850394 L457.621688,372.850394 C461.874806,372.850394 464.511579,375.239107 464.511579,378.972505 C464.511579,381.787421 463.305328,384.111709 460.572439,384.894731 L460.572439,384.960809 C463.210814,385.486128 463.749062,387.481679 463.97173,389.77458 C464.163961,392.064177 464.034205,394.616433 465.302932,396.220472 L461.942087,396.220472 C461.083454,395.272255 461.560828,392.753038 461.115492,390.461789 C460.796709,388.17054 460.258461,386.237763 457.339749,386.237763 L449.970881,386.237763 L449.970881,396.220472 L446.957655,396.220472 L446.957655,372.850394 Z" id="Fill-27" fill="#8A8B8A" mask="url(#mask-2)"></path>
        <polygon id="Fill-28" fill="#8A8B8A" mask="url(#mask-2)" points="470.306189 372.850394 486.883584 372.850394 486.883584 375.467261 473.500155 375.467261 473.500155 382.898239 485.977326 382.898239 485.977326 385.520062 473.500155 385.520062 473.500155 393.605257 486.983713 393.605257 486.983713 396.220472 470.306189 396.220472"></polygon>
        <polygon id="Fill-29" fill="#7CB141" mask="url(#mask-2)" points="21.6807818 230.96063 36.6905537 230.96063 36.6905537 104.094488 21.6807818 104.094488"></polygon>
        <path d="M95.6826624,221.538679 C104.897206,221.538679 112.134709,219.243653 117.39517,214.656924 C122.657295,210.068533 125.286693,203.643789 125.286693,195.387677 L125.286693,187.374196 L110.48551,187.94089 C98.7147915,188.31647 90.2274927,189.975004 85.026942,192.919817 C79.8230629,195.862968 77.2236196,200.43474 77.2236196,206.643443 C77.2236196,211.497731 78.8428631,215.197028 82.0846784,217.734685 C85.3231653,220.269019 89.8563814,221.538679 95.6826624,221.538679 L95.6826624,221.538679 Z M129.12262,231.009609 L126.180356,218.38281 L125.466424,218.38281 C120.590388,223.940064 115.730993,227.704173 110.886576,229.676799 C106.040495,231.646101 99.9928788,232.629921 92.7403988,232.629921 C83.0499006,232.629921 75.4546003,230.364808 69.956162,225.831259 C64.4577237,221.294386 61.7068404,214.844714 61.7068404,206.478919 C61.7068404,188.560763 77.4932162,179.166278 109.057647,178.302112 L125.644491,177.820173 L125.644491,172.314436 C125.644491,165.347926 123.995293,160.20946 120.693567,156.889067 C117.39517,153.570336 112.119731,151.91014 104.867251,151.91014 C96.7227725,151.91014 87.5082287,154.175253 77.2236196,158.712126 L72.675426,148.430209 C77.4932162,146.055413 82.7653265,144.19247 88.5050703,142.844703 C94.2414858,141.493612 99.9928788,140.818898 105.759249,140.818898 C117.408483,140.818898 126.045558,143.165442 131.663817,147.861853 C137.282076,152.559927 140.091205,160.088145 140.091205,170.451493 L140.091205,231.009609 L129.12262,231.009609 Z" id="Fill-30" fill="#7CB141" mask="url(#mask-2)"></path>
        <path d="M250.481209,230.96063 L232.508038,179.055251 C231.376579,175.882207 229.25718,168.671193 226.159854,157.423868 L225.443931,157.423868 C223.05919,166.840272 220.973167,174.105964 219.184194,179.217632 L200.673664,230.96063 L183.504864,230.96063 L156.76873,142.488189 L172.328789,142.488189 C178.646935,164.714415 183.461475,181.640082 186.769072,193.26519 C190.078338,204.890298 191.969109,212.717694 192.44806,216.755662 L193.162314,216.755662 C193.819829,213.687005 194.87619,209.718628 196.338075,204.847217 C197.798291,199.977463 199.064924,196.116788 200.137974,193.26519 L218.112813,142.488189 L234.206895,142.488189 L251.732822,193.26519 C255.072127,202.519213 257.335044,210.295244 258.528249,216.593282 L259.245841,216.593282 C259.482813,214.656316 260.123639,211.667192 261.166651,207.632537 C262.207993,203.594569 268.426009,181.881995 279.810686,142.488189 L295.192182,142.488189 L268.097252,230.96063 L250.481209,230.96063 Z" id="Fill-31" fill="#537437" mask="url(#mask-2)"></path>
        <path d="M380.44912,230.96063 L380.44912,173.69402 C380.44912,166.478703 378.634307,161.093741 375.003015,157.540794 C371.378384,153.987847 365.695855,152.210545 357.967082,152.210545 C347.737529,152.210545 340.243517,154.715679 335.483378,159.722632 C330.72657,164.729585 328.347333,172.996031 328.347333,184.518654 L328.347333,230.96063 L313.537459,230.96063 L313.537459,142.435381 L325.578495,142.435381 L327.987701,154.553202 L328.703636,154.553202 C331.737205,150.191184 335.989528,146.810662 341.462272,144.414951 C346.930021,142.022556 353.028792,140.818898 359.75026,140.818898 C371.528231,140.818898 380.389181,143.395323 386.334775,148.536568 C392.283699,153.679472 395.257329,161.90447 395.257329,173.209904 L395.257329,230.96063 L380.44912,230.96063 Z" id="Fill-32" fill="#7CB141" mask="url(#mask-2)"></path>
        <path d="M488.651466,206.847055 C488.651466,215.091866 485.226154,221.450489 478.375531,225.921267 C471.523226,230.395362 461.908464,232.629921 449.529563,232.629921 C436.425559,232.629921 426.211872,230.770277 418.878408,227.055965 L418.878408,214.607462 C423.627747,216.764053 428.715243,218.459464 434.159402,219.700333 C439.596832,220.939543 444.842471,221.558319 449.891273,221.558319 C457.702531,221.558319 463.71365,220.44021 467.9179,218.202332 C472.125515,215.971091 474.228482,212.560361 474.228482,207.980095 C474.228482,204.532868 472.56125,201.584975 469.225104,199.131439 C465.890641,196.681221 459.384904,193.784754 449.711259,190.442039 C440.515408,187.373045 433.977706,184.693897 430.099836,182.402934 C426.225331,180.110313 423.340061,177.510792 421.447391,174.602713 C419.553039,171.692975 418.605863,168.219206 418.605863,164.176429 C418.605863,156.956828 421.883126,151.260112 428.435969,147.084622 C434.983765,142.912449 443.967637,140.818898 455.387586,140.818898 C466.02523,140.818898 476.420614,142.759829 486.578782,146.638373 L481.259119,157.549061 C471.343212,153.886176 462.357657,152.053074 454.307502,152.053074 C447.2163,152.053074 441.864671,153.050082 438.261028,155.045758 C434.652337,157.036456 432.850516,159.786938 432.850516,163.288909 C432.850516,165.657841 433.525148,167.6784 434.877775,169.348928 C436.230403,171.019456 438.409077,172.608697 441.413795,174.11831 C444.418513,175.626264 450.189053,177.807738 458.722049,180.664391 C470.44146,184.488191 478.36039,188.343511 482.477157,192.222056 C486.590559,196.1006 488.651466,200.974494 488.651466,206.847055" id="Fill-33" fill="#7CB141" mask="url(#mask-2)"></path>
        <path d="M126.023914,344.472441 L126.023914,291.147438 C126.023914,284.615385 124.630576,279.716345 121.842227,276.451993 C119.050532,273.187641 114.718304,271.552953 108.84387,271.552953 C101.124475,271.552953 95.4256721,273.772176 91.7407694,278.208948 C88.0541939,282.645719 86.2142515,289.477577 86.2142515,298.701171 L86.2142515,344.472441 L73.8147126,344.472441 L73.8147126,291.147438 C73.8147126,284.615385 72.4197018,279.716345 69.6313527,276.451993 C66.841331,273.187641 62.4856856,271.552953 56.5610712,271.552953 C48.793169,271.552953 43.1044017,273.882719 39.4947693,278.5456 C35.8817915,283.210156 34.078648,290.847633 34.078648,301.468082 L34.078648,344.472441 L21.6807818,344.472441 L21.6807818,262.503547 L31.763666,262.503547 L33.7809119,273.72193 L34.3780568,273.72193 C36.718129,269.732352 40.0166439,266.617065 44.2736014,264.372719 C48.530559,262.128372 53.2993551,261.007874 58.5766444,261.007874 C71.37428,261.007874 79.7409997,265.645632 83.6751311,274.917798 L84.272276,274.917798 C86.7093633,270.630091 90.2470707,267.240123 94.8770348,264.746218 C99.5086715,262.253989 104.784288,261.007874 110.712248,261.007874 C119.973849,261.007874 126.905414,263.391236 131.510287,268.149586 C136.116834,272.911285 138.423453,280.526989 138.423453,290.998373 L138.423453,344.472441 L126.023914,344.472441 Z" id="Fill-34" fill="#FFFFFF" mask="url(#mask-2)"></path>
        <path d="M186.629232,335.857477 C194.275229,335.857477 200.27901,333.729005 204.64389,329.475422 C209.010427,325.22184 211.196181,319.266824 211.196181,311.608694 L211.196181,304.175853 L198.911878,304.702087 C189.146412,305.051788 182.101953,306.591821 177.78513,309.318821 C173.468307,312.049184 171.312381,316.287635 171.312381,322.044262 C171.312381,326.548352 172.652999,329.976437 175.34252,332.328517 C178.030385,334.682278 181.79207,335.857477 186.629232,335.857477 L186.629232,335.857477 Z M214.37787,344.64205 L211.935261,332.930407 L211.343666,332.930407 C207.298612,338.083463 203.263501,341.575436 199.241647,343.401282 C195.223107,345.228809 190.205318,346.141732 184.186622,346.141732 C176.146228,346.141732 169.842507,344.04016 165.278771,339.835334 C160.715036,335.632189 158.436482,329.651954 158.436482,321.892949 C158.436482,305.277077 171.534436,296.568161 197.728687,295.767882 L211.492807,295.317305 L211.492807,290.213006 C211.492807,283.756975 210.120704,278.988928 207.381468,275.910544 C204.64389,272.833842 200.269067,271.29381 194.252029,271.29381 C187.492596,271.29381 179.846599,273.397064 171.312381,277.600209 L167.537439,268.065795 C171.534436,265.863347 175.909259,264.136695 180.670193,262.885839 C185.42947,261.634983 190.205318,261.007874 194.991109,261.007874 C204.660461,261.007874 211.822576,263.185103 216.484082,267.541242 C221.145589,271.8957 223.478827,278.876283 223.478827,288.486354 L223.478827,344.64205 L214.37787,344.64205 Z" id="Fill-35" fill="#FFFFFF" mask="url(#mask-2)"></path>
        <path d="M275.674719,334.290596 C277.862727,334.290596 279.972294,334.130802 282.010095,333.807886 C284.047897,333.486635 285.661782,333.150403 286.85342,332.804183 L286.85342,342.243654 C285.513245,342.887822 283.535526,343.418802 280.92694,343.841589 C278.318354,344.259383 275.973463,344.472441 273.887262,344.472441 C258.087208,344.472441 250.188016,336.173164 250.188016,319.572945 L250.188016,271.113888 L238.488599,271.113888 L238.488599,265.168236 L250.188016,260.039862 L255.403519,242.645669 L262.560024,242.645669 L262.560024,261.526275 L286.257601,261.526275 L286.257601,271.113888 L262.560024,271.113888 L262.560024,319.053616 C262.560024,323.958945 263.726628,327.725745 266.061504,330.352351 C268.398049,332.977293 271.602455,334.290596 275.674719,334.290596" id="Fill-36" fill="#FFFFFF" mask="url(#mask-2)"></path>
        <path d="M329.044467,334.290596 C331.230805,334.290596 333.340372,334.130802 335.378174,333.807886 C337.415975,333.486635 339.02986,333.150403 340.221498,332.804183 L340.221498,342.243654 C338.881323,342.887822 336.903604,343.418802 334.295018,343.841589 C331.686432,344.259383 329.341542,344.472441 327.25534,344.472441 C311.455287,344.472441 303.557763,336.173164 303.557763,319.572945 L303.557763,271.113888 L291.856678,271.113888 L291.856678,265.168236 L303.557763,260.039862 L308.773266,242.645669 L315.928102,242.645669 L315.928102,261.526275 L339.627348,261.526275 L339.627348,271.113888 L315.928102,271.113888 L315.928102,319.053616 C315.928102,323.958945 317.094706,327.725745 319.429582,330.352351 C321.766128,332.977293 324.970533,334.290596 329.044467,334.290596" id="Fill-37" fill="#FFFFFF" mask="url(#mask-2)"></path>
        <path d="M388.895543,271.425133 C382.403661,271.425133 377.226674,273.573367 373.366235,277.869836 C369.505795,282.166305 367.234463,288.11255 366.545629,295.706895 L408.812239,295.706895 C408.812239,287.862482 407.090982,281.854139 403.648468,277.683544 C400.205953,273.514626 395.288312,271.425133 388.895543,271.425133 M392.215818,346.141732 C380.264479,346.141732 370.833905,342.444419 363.92575,335.051472 C357.015944,327.656847 353.563518,317.388957 353.563518,304.249483 C353.563518,291.00931 356.769814,280.493031 363.187361,272.698968 C369.603256,264.904905 378.224409,261.007874 389.04256,261.007874 C399.17353,261.007874 407.188443,264.393022 413.088952,271.163317 C418.991113,277.93529 421.941368,286.863889 421.941368,297.954149 L421.941368,305.823736 L366.251595,305.823736 C366.496073,315.467295 368.891297,322.784718 373.440569,327.78272 C377.98819,332.777365 384.395826,335.274687 392.65687,335.274687 C401.362268,335.274687 409.966902,333.42687 418.474076,329.729557 L418.474076,340.821496 C414.146154,342.719662 410.051148,344.082448 406.190709,344.906497 C402.330269,345.730547 397.671972,346.141732 392.215818,346.141732" id="Fill-38" fill="#FFFFFF" mask="url(#mask-2)"></path>
        <path d="M478.956057,261.007874 C482.559103,261.007874 485.789248,261.306004 488.651466,261.905613 L486.949383,273.422125 C483.594937,272.675126 480.634937,272.299952 478.069382,272.299952 C471.506336,272.299952 465.891285,274.993168 461.23086,280.377924 C456.567119,285.762681 454.238564,292.468922 454.238564,300.496648 L454.238564,344.472441 L441.954397,344.472441 L441.954397,262.503547 L452.092315,262.503547 L453.499392,277.686383 L454.091061,277.686383 C457.099124,272.350198 460.72703,268.23668 464.969807,265.345827 C469.212585,262.4533 473.876325,261.007874 478.956057,261.007874" id="Fill-39" fill="#FFFFFF" mask="url(#mask-2)"></path>
        <path d="M182.797686,230.96063 L155.806462,143.308268 C155.806462,143.308268 148.646316,104.824171 120.078176,104.094488 C152.165739,104.782332 168.167401,130.796543 171.51498,141.599537 C176.090735,156.372276 200.130293,230.96063 200.130293,230.96063" id="Fill-40" fill="#89B940" mask="url(#mask-2)"></path>
        <path d="M251.052964,230.96063 L218.980148,141.670845 C218.980148,141.670845 213.222386,110.493417 186.788274,100.755906 C218.211234,102.886352 231.424983,130.933328 234.927263,141.670845 C239.097589,154.453523 268.508143,230.96063 268.508143,230.96063" id="Fill-41" fill="#89B940" mask="url(#mask-2)"></path>
    </g>
</svg>