<?xml version="1.0" encoding="UTF-8"?>
<svg width="127px" height="78px" viewBox="0 0 127 78" version="1.1" xmlns="http://www.w3.org/2000/svg" xmlns:xlink="http://www.w3.org/1999/xlink">
    <!-- Generator: Sketch 63.1 (92452) - https://sketch.com -->
    <title>W</title>
    <desc>Created with Sketch.</desc>
    <g id="W" stroke="none" stroke-width="1" fill="none" fill-rule="evenodd">
        <path d="M116.533711,78 L98.7597517,24.5103645 C98.7597517,24.5103645 93.8501416,5.83332049 78,0 C96.8415014,1.27625799 104.764589,18.0779841 106.864589,24.5103645 C109.365156,32.1679125 127,78 127,78" id="Fill-dark-right" fill="#537437" transform="translate(102.500000, 39.000000) scale(-1, 1) translate(-102.500000, -39.000000) "></path>
        <path d="M76.533711,78 L57.3025496,24.5103645 C57.3025496,24.5103645 53.8501416,5.83332049 38,0 C56.8415014,1.27625799 64.7645892,18.0779841 66.8645892,24.5103645 C69.3651558,32.1679125 87,78 87,78" id="Fill-dark-right-Copy" fill="#537437" transform="translate(62.500000, 39.000000) scale(-1, 1) translate(-62.500000, -39.000000) "></path>
        <path d="M37.607206,78 L21.4230154,25.4912737 C21.4230154,25.4912737 17.1297247,2.43712156 0,2 C19.2400034,2.41205725 28.8347504,17.9960425 30.8419901,24.4676473 C33.5856554,33.3173537 48,78 48,78" id="Fill-40" fill="#89B940"></path>
        <path d="M77.533711,78 L58.3025496,24.5103645 C58.3025496,24.5103645 54.8501416,5.83332049 39,0 C57.8415014,1.27625799 65.7645892,18.0779841 67.8645892,24.5103645 C70.3651558,32.1679125 88,78 88,78" id="Fill-41" fill="#89B940"></path>
    </g>
</svg>