<?xml version="1.0" standalone="no"?>
<!DOCTYPE svg PUBLIC "-//W3C//DTD SVG 20010904//EN"
 "http://www.w3.org/TR/2001/REC-SVG-20010904/DTD/svg10.dtd">
<svg version="1.0" xmlns="http://www.w3.org/2000/svg"
 width="300.000000pt" height="300.000000pt" viewBox="0 0 300.000000 300.000000"
 preserveAspectRatio="xMidYMid meet">
<metadata>
Created by potrace 1.11, written by Peter Selinger 2001-2013
</metadata>
<g transform="translate(0.000000,300.000000) scale(0.100000,-0.100000)"
fill="#000000" stroke="none">
<path d="M0 2578 c0 -5 6 -8 13 -8 21 0 184 -86 240 -127 59 -43 158 -139 203
-198 113 -148 194 -349 354 -875 23 -74 43 -146 46 -159 3 -13 16 -63 31 -110
14 -47 29 -102 33 -121 5 -19 29 -111 54 -205 25 -93 58 -218 73 -277 l27
-107 202 0 c144 0 205 4 212 12 5 7 53 154 107 327 53 173 105 340 115 370 16
49 83 266 97 313 2 10 7 17 9 14 2 -2 20 -60 39 -128 19 -68 43 -153 54 -189
10 -36 26 -92 35 -125 9 -33 27 -100 40 -150 50 -185 68 -250 71 -265 2 -8 8
-35 15 -60 6 -25 16 -62 21 -82 l9 -36 205 0 c203 0 205 0 206 21 0 12 2 29 4
37 4 18 6 29 56 310 22 124 44 245 50 270 6 25 13 58 15 74 3 23 46 244 68
352 82 388 168 645 276 820 11 17 17 33 14 36 -12 12 -146 -39 -189 -72 -61
-46 -125 -126 -168 -209 -26 -50 -47 -94 -48 -99 -1 -4 -6 -18 -11 -32 -105
-287 -155 -437 -266 -800 l-29 -95 -47 150 c-27 83 -57 179 -69 215 -12 36
-22 67 -22 70 -1 3 -4 12 -7 20 -3 8 -25 71 -48 140 -22 69 -45 134 -50 145
-5 11 -19 47 -31 80 -12 33 -25 64 -30 70 -5 5 -9 15 -9 22 0 24 -98 212 -143
276 -84 117 -200 221 -317 284 -49 26 -180 71 -252 87 -48 11 -157 19 -208 16
l-35 -1 40 -15 c223 -82 443 -288 536 -504 l22 -51 -76 -232 c-42 -128 -117
-361 -169 -520 -84 -260 -104 -312 -105 -274 -1 11 -47 164 -60 197 -3 8 -7
21 -9 27 -9 47 -177 538 -214 628 -78 191 -107 250 -169 345 -44 67 -168 194
-236 242 -110 78 -282 139 -428 153 -100 10 -147 11 -147 3z"/>
</g>
</svg>
